<svg id="svg" version="1.1" xmlns="http://www.w3.org/2000/svg" xmlns:xlink="http://www.w3.org/1999/xlink" width="400" height="400" viewBox="0, 0, 400,400"><g id="svgg"><path id="path0" d="M125.361 98.900 C 125.650 107.041,126.899 122.832,127.418 124.902 C 128.009 127.263,128.561 127.200,107.184 127.200 C 96.449 127.200,87.381 127.309,87.033 127.443 C 86.279 127.732,86.050 144.800,86.800 144.800 C 87.040 144.800,87.200 146.400,87.200 148.800 C 87.200 151.200,87.360 152.800,87.600 152.800 C 87.826 152.800,88.000 153.933,88.000 155.400 C 88.000 156.867,88.174 158.000,88.400 158.000 C 88.620 158.000,88.800 158.900,88.800 160.000 C 88.800 161.100,88.980 162.000,89.200 162.000 C 89.420 162.000,89.600 162.720,89.600 163.600 C 89.600 164.480,89.780 165.200,90.000 165.200 C 90.220 165.200,90.400 165.920,90.400 166.800 C 90.400 167.680,90.580 168.400,90.800 168.400 C 91.020 168.400,91.200 168.789,91.200 169.265 C 91.200 170.365,92.290 174.093,93.256 176.296 C 93.665 177.228,94.000 178.156,94.000 178.358 C 94.000 178.730,94.271 179.312,97.094 185.000 C 99.098 189.038,100.537 191.742,100.819 192.000 C 100.940 192.110,101.525 193.043,102.120 194.072 C 109.467 206.793,125.740 221.138,141.600 228.876 C 149.528 232.744,156.641 235.379,164.580 237.388 C 168.614 238.408,168.838 238.540,172.384 242.001 C 173.815 243.397,179.163 246.826,182.438 248.447 C 183.802 249.122,189.418 250.980,193.100 251.973 L 194.800 252.432 194.782 260.716 C 194.765 268.626,194.652 269.675,193.401 273.500 C 193.239 273.995,192.948 274.400,192.753 274.400 C 192.559 274.400,192.400 274.683,192.400 275.029 C 192.400 276.663,184.524 283.369,179.200 286.268 C 175.752 288.145,175.564 288.240,172.600 289.607 C 170.028 290.793,169.327 291.096,167.000 292.027 C 165.882 292.475,161.751 293.795,159.600 294.393 C 158.610 294.668,157.350 295.033,156.800 295.204 C 154.890 295.800,151.377 296.383,147.235 296.793 C 138.883 297.619,135.913 304.843,142.483 308.350 L 144.076 309.200 199.789 309.200 C 259.235 309.200,257.163 309.265,258.860 307.333 C 263.376 302.190,260.435 297.482,252.125 296.553 C 247.581 296.045,245.534 295.681,242.300 294.806 C 241.475 294.583,240.215 294.241,239.500 294.047 C 237.715 293.563,234.409 292.450,233.200 291.926 C 232.650 291.688,231.840 291.356,231.400 291.189 C 220.723 287.133,209.623 279.149,206.934 273.590 C 205.329 270.272,205.200 269.277,205.200 260.173 C 205.200 250.663,205.280 250.000,206.423 250.000 C 211.845 250.000,223.546 244.063,230.134 237.969 C 231.417 236.782,232.340 236.381,235.541 235.620 C 239.137 234.765,246.650 232.461,248.700 231.585 C 249.195 231.373,250.050 231.020,250.600 230.800 C 251.150 230.580,252.005 230.232,252.500 230.027 C 253.978 229.415,262.506 225.225,263.800 224.475 C 264.460 224.093,265.900 223.259,267.000 222.622 C 274.952 218.017,285.234 209.272,291.483 201.800 C 293.848 198.972,299.600 190.663,299.600 190.075 C 299.600 189.850,299.735 189.607,299.900 189.533 C 300.173 189.412,300.563 188.719,302.784 184.400 C 306.132 177.890,308.800 170.824,308.800 168.465 C 308.800 167.989,308.980 167.600,309.200 167.600 C 309.420 167.600,309.600 166.880,309.600 166.000 C 309.600 165.120,309.780 164.400,310.000 164.400 C 310.220 164.400,310.400 163.680,310.400 162.800 C 310.400 161.920,310.580 161.200,310.800 161.200 C 311.020 161.200,311.200 160.390,311.200 159.400 C 311.200 158.410,311.380 157.600,311.600 157.600 C 311.822 157.600,312.000 156.533,312.000 155.200 C 312.000 153.867,312.178 152.800,312.400 152.800 C 312.640 152.800,312.800 151.200,312.800 148.800 C 312.800 146.400,312.960 144.800,313.200 144.800 C 313.540 144.800,313.835 127.815,313.500 127.509 C 313.445 127.458,303.680 127.323,291.800 127.209 L 270.200 127.000 270.267 125.400 C 270.304 124.520,270.541 121.640,270.793 119.000 C 271.441 112.231,271.977 104.681,272.247 98.500 L 272.478 93.200 198.819 93.200 L 125.159 93.200 125.361 98.900 M129.437 140.800 C 129.694 142.230,130.303 145.920,130.791 149.000 C 131.279 152.080,132.222 157.300,132.886 160.600 C 134.564 168.927,134.703 169.589,135.160 171.400 C 136.213 175.576,136.473 176.694,136.673 177.904 C 136.792 178.621,137.049 179.306,137.244 179.427 C 137.440 179.548,137.600 180.166,137.600 180.800 C 137.600 181.434,137.780 182.064,138.000 182.200 C 138.220 182.336,138.400 182.889,138.400 183.429 C 138.400 183.969,138.562 184.723,138.761 185.105 C 138.960 185.487,139.337 186.610,139.600 187.600 C 139.863 188.590,140.240 189.713,140.439 190.095 C 140.638 190.477,140.800 191.141,140.800 191.571 C 140.800 192.001,140.980 192.464,141.200 192.600 C 141.420 192.736,141.600 193.251,141.600 193.744 C 141.600 194.237,141.743 194.811,141.918 195.020 C 142.093 195.229,142.465 196.120,142.745 197.000 C 143.024 197.880,143.404 198.960,143.589 199.400 C 143.774 199.840,144.677 202.124,145.597 204.475 C 146.516 206.827,148.513 211.234,150.034 214.268 C 153.276 220.736,153.344 221.579,150.495 220.020 C 150.113 219.811,148.180 218.874,146.200 217.938 C 144.220 217.002,140.980 215.276,139.000 214.101 C 134.006 211.139,133.825 211.028,133.600 210.781 C 133.490 210.660,132.770 210.126,132.000 209.594 C 131.230 209.062,130.359 208.393,130.065 208.107 C 129.771 207.822,128.871 207.096,128.065 206.494 C 125.637 204.681,119.280 198.384,116.866 195.400 C 115.621 193.860,114.497 192.510,114.369 192.400 C 113.849 191.954,110.000 186.009,110.000 185.651 C 110.000 185.440,109.841 185.207,109.647 185.133 C 109.008 184.892,103.664 173.485,102.275 169.400 C 100.522 164.242,98.807 157.361,98.038 152.400 C 97.816 150.970,97.447 148.609,97.217 147.154 C 96.988 145.699,96.800 143.041,96.800 141.249 L 96.800 137.991 112.885 138.095 L 128.970 138.200 129.437 140.800 M300.882 141.600 C 300.828 143.470,300.608 146.125,300.392 147.500 C 299.369 154.023,299.099 155.609,298.537 158.400 C 297.662 162.741,296.310 167.268,294.415 172.200 C 289.793 184.224,281.771 195.852,272.194 204.408 C 269.548 206.772,261.529 212.800,261.031 212.800 C 260.957 212.800,259.925 213.385,258.737 214.100 C 257.548 214.815,254.602 216.363,252.188 217.540 C 249.775 218.717,247.487 219.842,247.105 220.040 C 244.396 221.444,244.405 220.822,247.174 215.319 C 249.754 210.190,250.450 208.653,252.390 203.800 C 253.094 202.040,253.822 200.240,254.008 199.800 C 254.195 199.360,254.731 197.830,255.200 196.400 C 255.669 194.970,256.199 193.440,256.379 193.000 C 256.558 192.560,257.105 190.850,257.593 189.200 C 258.082 187.550,258.644 185.887,258.841 185.505 C 259.038 185.123,259.200 184.369,259.200 183.829 C 259.200 183.289,259.360 182.748,259.556 182.627 C 259.751 182.506,260.005 181.821,260.119 181.104 C 260.232 180.387,260.534 179.080,260.789 178.200 C 261.044 177.320,261.429 175.880,261.645 175.000 C 261.860 174.120,262.218 172.680,262.440 171.800 C 263.085 169.242,263.988 165.111,264.800 161.000 C 265.061 159.680,265.437 157.790,265.635 156.800 C 266.363 153.173,267.519 146.255,268.009 142.600 C 268.215 141.060,268.481 139.393,268.601 138.895 L 268.818 137.991 284.899 138.095 L 300.981 138.200 300.882 141.600 M282.088 314.419 C 278.049 315.229,274.504 319.322,273.532 324.300 C 273.349 325.235,273.020 326.810,272.800 327.800 C 272.580 328.790,272.230 330.365,272.022 331.300 C 271.814 332.235,271.444 333.810,271.200 334.800 C 270.956 335.790,270.596 337.320,270.400 338.200 C 270.204 339.080,269.872 340.520,269.662 341.400 C 269.452 342.280,269.064 343.990,268.800 345.200 C 268.536 346.410,268.171 348.030,267.989 348.800 C 267.105 352.552,265.005 361.957,263.544 368.702 C 263.294 369.857,262.664 371.262,262.144 371.822 C 261.142 372.904,260.687 378.400,261.600 378.400 C 261.820 378.400,262.000 378.678,262.000 379.018 C 262.000 379.990,263.859 381.600,264.982 381.600 C 265.542 381.600,266.000 381.780,266.000 382.000 C 266.000 382.262,274.333 382.400,290.200 382.400 C 306.067 382.400,314.400 382.538,314.400 382.800 C 314.400 383.020,314.220 383.200,314.000 383.200 C 313.780 383.200,313.600 383.740,313.600 384.400 C 313.600 385.060,313.780 385.600,314.000 385.600 C 314.220 385.600,314.400 386.248,314.400 387.040 C 314.400 388.812,316.111 390.584,318.424 391.206 C 319.455 391.484,330.130 391.587,350.287 391.512 L 380.600 391.400 382.115 390.499 C 384.063 389.339,386.400 387.002,386.400 386.213 C 386.400 385.876,386.580 385.600,386.800 385.600 C 387.020 385.600,387.200 385.240,387.200 384.800 C 387.200 384.360,387.380 384.000,387.600 384.000 C 387.820 384.000,388.000 383.471,388.000 382.824 C 388.000 382.177,388.180 381.536,388.400 381.400 C 388.620 381.264,388.800 380.353,388.800 379.376 C 388.800 378.399,388.980 377.600,389.200 377.600 C 389.420 377.600,389.600 376.891,389.600 376.024 C 389.600 375.157,389.780 374.336,390.000 374.200 C 390.220 374.064,390.400 373.254,390.400 372.400 C 390.400 371.546,390.565 370.745,390.766 370.621 C 390.967 370.496,391.259 369.046,391.413 367.397 C 391.568 365.749,391.853 364.400,392.047 364.400 C 392.241 364.400,392.400 363.500,392.400 362.400 C 392.400 361.300,392.580 360.400,392.800 360.400 C 393.020 360.400,393.200 359.680,393.200 358.800 C 393.200 357.920,393.380 357.200,393.600 357.200 C 393.820 357.200,394.000 356.390,394.000 355.400 C 394.000 354.410,394.180 353.600,394.400 353.600 C 394.620 353.600,394.800 352.880,394.800 352.000 C 394.800 351.120,394.980 350.400,395.200 350.400 C 395.420 350.400,395.600 349.680,395.600 348.800 C 395.600 347.920,395.780 347.200,396.000 347.200 C 396.220 347.200,396.400 346.300,396.400 345.200 C 396.400 344.100,396.580 343.200,396.800 343.200 C 397.020 343.200,397.200 342.581,397.200 341.824 C 397.200 341.067,397.380 340.336,397.600 340.200 C 397.820 340.064,398.000 339.153,398.000 338.176 C 398.000 337.199,398.180 336.400,398.400 336.400 C 398.620 336.400,398.800 335.680,398.800 334.800 C 398.800 333.920,398.980 333.200,399.200 333.200 C 399.435 333.200,399.600 331.800,399.600 329.800 C 399.600 327.800,399.435 326.400,399.200 326.400 C 398.980 326.400,398.800 326.122,398.800 325.782 C 398.800 324.810,396.941 323.200,395.818 323.200 C 395.258 323.200,394.800 323.015,394.800 322.788 C 394.800 322.345,348.839 322.537,342.251 323.008 C 338.174 323.299,337.779 323.102,337.942 320.848 C 338.106 318.577,336.724 315.916,334.888 314.968 C 333.260 314.128,285.994 313.636,282.088 314.419 M334.878 317.557 C 336.175 319.009,336.252 320.430,335.261 324.600 C 335.052 325.480,334.684 327.100,334.445 328.200 C 334.205 329.300,333.645 331.730,333.200 333.600 C 332.755 335.470,332.195 337.900,331.955 339.000 C 330.433 345.983,325.539 367.490,324.719 370.800 C 322.517 379.692,322.670 379.652,291.581 379.512 L 266.734 379.400 265.567 378.094 C 264.287 376.660,264.067 374.824,264.815 371.800 C 265.032 370.920,265.406 369.300,265.645 368.200 C 265.885 367.100,266.219 365.570,266.389 364.800 C 266.943 362.285,272.014 339.867,272.632 337.200 C 273.814 332.104,273.984 331.355,274.813 327.600 C 275.274 325.510,275.820 323.487,276.026 323.105 C 276.232 322.723,276.400 322.225,276.400 321.997 C 276.400 321.125,278.568 318.361,279.897 317.540 C 282.223 316.102,282.985 316.065,308.733 316.134 L 333.666 316.200 334.878 317.557 M394.497 325.744 C 397.466 327.220,397.436 328.293,394.011 342.800 C 393.829 343.570,393.464 345.190,393.200 346.400 C 392.936 347.610,392.548 349.320,392.338 350.200 C 392.128 351.080,391.786 352.565,391.578 353.500 C 391.370 354.435,391.020 356.010,390.800 357.000 C 390.580 357.990,390.230 359.565,390.022 360.500 C 389.814 361.435,389.444 363.010,389.200 364.000 C 388.956 364.990,388.586 366.565,388.378 367.500 C 388.170 368.435,387.830 369.965,387.622 370.900 C 387.414 371.835,387.072 373.320,386.862 374.200 C 386.652 375.080,386.296 376.700,386.070 377.800 C 384.645 384.731,382.634 387.358,377.783 388.621 C 374.891 389.375,323.930 389.485,320.877 388.745 C 316.285 387.631,315.230 383.150,319.128 381.317 C 323.523 379.251,325.706 375.905,327.230 368.900 C 328.124 364.793,328.865 361.532,329.661 358.200 C 329.872 357.320,330.214 355.835,330.422 354.900 C 330.630 353.965,330.970 352.435,331.178 351.500 C 331.386 350.565,331.728 349.080,331.938 348.200 C 332.148 347.320,332.514 345.700,332.752 344.600 C 332.990 343.500,333.444 341.430,333.761 340.000 C 334.078 338.570,334.915 334.790,335.620 331.600 C 336.326 328.410,337.085 325.571,337.307 325.292 C 338.053 324.355,392.570 324.786,394.497 325.744 M296.178 325.791 C 286.847 328.740,281.920 338.684,285.827 346.686 C 287.121 349.337,289.364 351.291,293.946 353.761 C 297.563 355.710,298.492 356.725,297.619 357.777 C 295.980 359.752,291.099 358.297,287.445 354.744 C 284.423 351.805,285.049 351.541,280.972 357.474 C 276.606 363.830,276.684 363.399,279.472 365.740 C 293.019 377.116,313.217 370.443,313.192 354.600 C 313.183 349.083,310.532 345.450,304.144 342.201 C 299.921 340.053,299.111 338.928,300.731 337.462 C 302.195 336.138,305.635 337.209,308.800 339.975 C 310.657 341.598,310.411 341.722,312.438 338.145 C 312.857 337.405,313.560 336.170,314.000 335.400 C 316.926 330.279,316.893 330.470,315.100 329.105 C 310.450 325.565,301.729 324.038,296.178 325.791 M348.558 334.703 C 348.315 334.866,347.892 335.990,347.619 337.200 C 347.346 338.410,346.593 341.650,345.947 344.400 C 345.301 347.150,344.587 350.210,344.361 351.200 C 344.135 352.190,343.792 353.630,343.600 354.400 C 343.408 355.170,343.048 356.700,342.800 357.800 C 342.552 358.900,342.189 360.430,341.994 361.200 C 341.798 361.970,341.531 363.140,341.401 363.800 C 341.271 364.460,340.982 365.720,340.760 366.600 C 340.538 367.480,340.196 368.920,340.000 369.800 C 339.804 370.680,339.443 372.210,339.197 373.200 C 338.952 374.190,338.651 375.495,338.530 376.100 L 338.309 377.200 353.879 377.200 L 369.448 377.200 370.569 372.300 C 371.185 369.605,371.770 367.089,371.869 366.709 C 372.033 366.075,371.425 366.009,364.524 365.909 L 357.000 365.800 356.877 364.741 C 356.810 364.159,357.026 363.034,357.357 362.241 L 357.959 360.800 364.572 360.800 C 371.104 360.800,371.187 360.789,371.384 359.900 C 371.494 359.405,371.947 357.490,372.392 355.645 C 372.836 353.800,373.200 351.869,373.200 351.355 L 373.200 350.420 366.700 350.310 C 359.569 350.189,360.036 350.400,360.700 347.600 L 361.032 346.200 368.272 346.091 L 375.512 345.982 375.738 344.891 C 375.862 344.291,376.152 342.945,376.382 341.900 C 377.490 336.864,377.637 336.145,377.716 335.400 C 377.803 334.569,349.756 333.899,348.558 334.703 " stroke="none" fill="#fbfbfb" fill-rule="evenodd"></path><path id="path1" d="M337.600 326.339 C 337.600 326.526,337.226 328.371,336.768 330.439 C 336.311 332.508,335.772 335.010,335.571 336.000 C 335.369 336.990,335.014 338.610,334.781 339.600 C 334.125 342.382,333.585 344.882,333.355 346.200 C 333.240 346.860,332.990 347.760,332.800 348.200 C 332.610 348.640,332.360 349.540,332.245 350.200 C 332.130 350.860,331.836 352.300,331.592 353.400 C 331.348 354.500,331.051 356.076,330.932 356.903 C 330.813 357.729,330.555 358.505,330.358 358.626 C 330.161 358.748,330.000 359.546,330.000 360.400 C 330.000 361.254,329.820 362.064,329.600 362.200 C 329.380 362.336,329.200 363.056,329.200 363.800 C 329.200 364.544,329.020 365.264,328.800 365.400 C 328.580 365.536,328.400 366.346,328.400 367.200 C 328.400 368.054,328.220 368.864,328.000 369.000 C 327.780 369.136,327.600 369.856,327.600 370.600 C 327.600 371.344,327.420 372.064,327.200 372.200 C 326.980 372.336,326.800 372.780,326.800 373.186 C 326.800 375.886,322.826 380.648,319.260 382.221 C 317.080 383.183,316.986 387.200,319.144 387.200 C 319.395 387.200,319.600 387.380,319.600 387.600 C 319.600 388.108,377.709 388.154,378.705 387.647 C 379.087 387.452,379.914 387.052,380.543 386.756 C 381.866 386.134,384.000 383.230,384.000 382.052 C 384.000 381.609,384.161 381.148,384.358 381.026 C 384.555 380.905,384.814 380.129,384.935 379.303 C 385.351 376.456,385.655 374.998,386.000 374.200 C 386.345 373.402,386.649 371.944,387.065 369.097 C 387.186 368.271,387.445 367.495,387.642 367.374 C 387.839 367.252,388.000 366.454,388.000 365.600 C 388.000 364.746,388.180 363.936,388.400 363.800 C 388.620 363.664,388.800 362.854,388.800 362.000 C 388.800 361.146,388.980 360.336,389.200 360.200 C 389.420 360.064,389.600 359.344,389.600 358.600 C 389.600 357.856,389.780 357.136,390.000 357.000 C 390.220 356.864,390.400 356.054,390.400 355.200 C 390.400 354.346,390.580 353.536,390.800 353.400 C 391.020 353.264,391.200 352.443,391.200 351.576 C 391.200 350.709,391.380 350.000,391.600 350.000 C 391.820 350.000,392.000 349.291,392.000 348.424 C 392.000 347.557,392.180 346.736,392.400 346.600 C 392.620 346.464,392.800 345.679,392.800 344.856 C 392.800 344.033,392.962 343.189,393.159 342.980 C 393.356 342.771,393.612 341.880,393.726 341.000 C 393.841 340.120,394.111 338.680,394.326 337.800 C 396.162 330.291,396.236 328.224,394.720 326.811 C 393.793 325.948,337.600 325.484,337.600 326.339 M378.464 336.000 C 378.389 336.990,378.164 337.971,377.964 338.180 C 377.764 338.389,377.600 339.323,377.600 340.256 C 377.600 341.189,377.420 342.064,377.200 342.200 C 376.980 342.336,376.800 342.956,376.800 343.578 C 376.800 344.200,376.533 345.224,376.206 345.854 L 375.613 347.000 368.506 347.200 L 361.400 347.400 361.273 348.500 L 361.147 349.600 367.586 349.600 C 374.479 349.600,375.200 349.828,374.063 351.648 C 373.808 352.055,373.600 353.011,373.600 353.771 C 373.600 354.531,373.439 355.252,373.242 355.374 C 373.045 355.495,372.790 356.271,372.674 357.097 C 371.964 362.183,372.266 362.000,364.551 362.000 L 358.000 362.000 358.000 363.120 C 358.000 363.736,357.784 364.456,357.520 364.720 C 357.147 365.093,358.749 365.200,364.733 365.200 C 373.323 365.200,373.281 365.185,372.479 367.930 C 372.243 368.738,371.645 371.245,371.150 373.500 L 370.251 377.600 353.949 377.600 C 338.984 377.600,336.251 377.434,337.593 376.604 C 337.817 376.466,338.000 375.654,338.000 374.800 C 338.000 373.946,338.180 373.136,338.400 373.000 C 338.620 372.864,338.800 372.144,338.800 371.400 C 338.800 370.656,338.980 369.936,339.200 369.800 C 339.420 369.664,339.600 368.843,339.600 367.976 C 339.600 367.109,339.780 366.400,340.000 366.400 C 340.220 366.400,340.400 365.691,340.400 364.824 C 340.400 363.957,340.580 363.136,340.800 363.000 C 341.020 362.864,341.200 362.054,341.200 361.200 C 341.200 360.346,341.380 359.536,341.600 359.400 C 341.820 359.264,342.000 358.544,342.000 357.800 C 342.000 357.056,342.180 356.336,342.400 356.200 C 342.620 356.064,342.800 355.254,342.800 354.400 C 342.800 353.546,342.961 352.748,343.158 352.626 C 343.355 352.505,343.613 351.729,343.732 350.903 C 343.851 350.076,344.129 348.590,344.351 347.600 C 344.572 346.610,344.933 344.990,345.152 344.000 C 346.004 340.142,347.225 334.976,347.397 334.495 C 347.540 334.098,350.890 334.013,363.089 334.095 L 378.600 334.200 378.464 336.000 " stroke="none" fill="#045ca4" fill-rule="evenodd"></path><path id="path2" d="M283.600 316.366 C 277.557 317.293,276.931 318.633,272.000 341.200 C 271.736 342.410,271.357 344.075,271.160 344.900 C 270.962 345.725,270.638 347.075,270.440 347.900 C 270.243 348.725,269.864 350.390,269.600 351.600 C 269.336 352.810,268.976 354.430,268.800 355.200 C 268.624 355.970,268.264 357.590,268.000 358.800 C 267.736 360.010,267.366 361.630,267.179 362.400 C 264.716 372.539,264.336 374.943,264.917 376.716 C 265.818 379.464,265.082 379.385,291.200 379.527 C 323.877 379.703,322.299 380.329,325.617 365.879 C 326.486 362.096,327.391 358.190,327.627 357.200 C 327.863 356.210,328.223 354.635,328.428 353.700 C 328.895 351.564,329.395 349.345,330.182 345.900 C 330.522 344.415,331.078 341.985,331.418 340.500 C 332.402 336.195,332.730 334.743,333.244 332.400 C 333.509 331.190,334.073 328.850,334.497 327.200 C 335.932 321.613,335.909 318.812,334.416 317.400 L 333.148 316.200 309.274 316.145 C 296.143 316.114,284.590 316.214,283.600 316.366 M307.628 325.362 C 311.300 326.240,316.007 328.798,316.548 330.209 C 316.794 330.849,316.228 332.094,314.007 335.800 C 313.348 336.900,312.327 338.657,311.738 339.705 C 310.802 341.370,310.583 341.546,309.992 341.105 C 309.620 340.827,308.443 339.943,307.377 339.139 C 303.928 336.540,300.389 336.249,300.406 338.568 C 300.416 339.891,300.804 340.230,304.402 342.048 C 321.571 350.726,311.765 374.498,292.229 371.560 C 286.252 370.661,276.228 365.268,276.965 363.348 C 277.342 362.366,284.417 352.000,284.707 352.005 C 284.868 352.009,286.051 353.081,287.335 354.390 C 290.608 357.725,295.771 359.522,297.184 357.819 C 298.103 356.712,297.383 355.877,293.800 353.892 C 286.499 349.849,284.414 347.030,284.410 341.200 C 284.403 329.870,295.326 322.419,307.628 325.362 " stroke="none" fill="#dc4627" fill-rule="evenodd"></path><path id="path3" d="M189.290 0.295 C 188.097 0.378,187.281 0.607,187.413 0.821 C 187.542 1.030,187.197 1.200,186.647 1.200 C 186.097 1.200,185.536 1.380,185.400 1.600 C 185.264 1.820,184.623 2.000,183.976 2.000 C 183.329 2.000,182.800 2.180,182.800 2.400 C 182.800 2.620,182.365 2.800,181.833 2.800 C 181.302 2.800,180.807 2.936,180.733 3.102 C 180.660 3.268,179.340 4.029,177.800 4.793 C 176.260 5.557,174.709 6.501,174.353 6.891 C 173.997 7.281,173.412 7.600,173.053 7.600 C 172.694 7.600,172.400 7.780,172.400 8.000 C 172.400 8.220,172.113 8.400,171.762 8.400 C 171.411 8.400,170.646 8.735,170.062 9.144 C 169.478 9.553,167.690 10.540,166.089 11.338 C 164.489 12.136,162.790 13.151,162.314 13.594 C 161.838 14.037,161.303 14.400,161.125 14.400 C 160.946 14.400,160.707 14.396,160.592 14.392 C 160.478 14.387,159.994 14.747,159.517 15.192 C 159.040 15.636,158.490 16.000,158.296 16.000 C 158.102 16.000,157.671 16.272,157.339 16.604 C 157.007 16.936,156.570 17.105,156.368 16.980 C 156.165 16.855,156.000 16.943,156.000 17.176 C 156.000 17.409,155.629 17.600,155.176 17.600 C 154.723 17.600,154.464 17.780,154.600 18.000 C 154.736 18.220,154.567 18.400,154.224 18.400 C 153.881 18.400,153.599 18.535,153.597 18.700 C 153.594 19.021,151.688 20.000,151.067 20.000 C 150.862 20.000,150.401 20.315,150.043 20.700 C 149.204 21.601,147.777 22.400,147.005 22.400 C 146.672 22.400,146.400 22.580,146.400 22.800 C 146.400 23.020,146.152 23.200,145.849 23.200 C 145.546 23.200,145.066 23.479,144.784 23.820 C 144.501 24.161,143.444 24.813,142.435 25.269 C 141.426 25.726,140.460 26.339,140.289 26.633 C 140.119 26.927,139.714 27.065,139.389 26.941 C 139.065 26.816,138.800 26.893,138.800 27.111 C 138.800 27.328,138.485 27.607,138.100 27.729 C 137.272 27.991,135.092 29.278,134.786 29.684 C 134.668 29.841,133.934 30.236,133.154 30.561 C 132.374 30.887,131.504 31.434,131.219 31.777 C 130.935 32.120,130.353 32.400,129.927 32.400 C 129.501 32.400,129.264 32.580,129.400 32.800 C 129.536 33.020,129.292 33.200,128.857 33.200 C 128.422 33.200,128.007 33.366,127.933 33.570 C 127.860 33.773,127.530 33.998,127.200 34.070 C 126.870 34.141,126.309 34.515,125.953 34.900 C 125.597 35.285,125.012 35.600,124.653 35.600 C 124.294 35.600,123.999 35.735,123.997 35.900 C 123.993 36.237,122.075 37.200,121.409 37.200 C 121.171 37.200,120.717 37.560,120.400 38.000 C 120.083 38.440,119.518 38.800,119.145 38.800 C 118.772 38.800,118.407 38.966,118.333 39.170 C 118.260 39.373,117.930 39.598,117.600 39.670 C 117.270 39.741,116.709 40.115,116.353 40.500 C 115.997 40.885,115.412 41.200,115.053 41.200 C 114.694 41.200,114.400 41.380,114.400 41.600 C 114.400 41.820,114.133 42.000,113.808 42.000 C 113.482 42.000,112.231 42.630,111.027 43.400 C 109.823 44.170,108.650 44.800,108.419 44.800 C 108.189 44.800,108.000 44.980,108.000 45.200 C 108.000 45.420,107.730 45.600,107.400 45.600 C 107.070 45.600,106.800 45.780,106.800 46.000 C 106.800 46.220,106.440 46.400,106.000 46.400 C 105.560 46.400,105.200 46.565,105.200 46.767 C 105.200 46.969,104.300 47.542,103.200 48.039 C 102.100 48.536,101.200 49.091,101.200 49.271 C 101.200 49.452,100.840 49.600,100.400 49.600 C 99.960 49.600,99.600 49.780,99.600 50.000 C 99.600 50.220,99.229 50.400,98.776 50.400 C 98.323 50.400,98.064 50.580,98.200 50.800 C 98.336 51.020,98.182 51.200,97.857 51.200 C 97.532 51.200,97.207 51.335,97.133 51.500 C 97.060 51.665,96.145 52.233,95.100 52.763 C 94.055 53.292,93.200 53.877,93.200 54.063 C 93.200 54.248,92.930 54.400,92.600 54.400 C 92.270 54.400,92.000 54.580,92.000 54.800 C 92.000 55.020,91.640 55.200,91.200 55.200 C 90.760 55.200,90.400 55.380,90.400 55.600 C 90.400 55.820,90.040 56.000,89.600 56.000 C 89.160 56.000,88.800 56.158,88.800 56.351 C 88.800 56.545,88.260 56.927,87.600 57.200 C 86.940 57.473,86.400 57.855,86.400 58.049 C 86.400 58.242,86.076 58.400,85.680 58.400 C 85.284 58.400,84.735 58.625,84.460 58.900 C 84.185 59.175,83.834 59.410,83.680 59.423 C 83.526 59.436,82.680 59.886,81.800 60.423 C 80.920 60.959,80.065 61.354,79.900 61.299 C 79.735 61.245,79.600 61.339,79.600 61.508 C 79.600 61.678,78.748 62.263,77.707 62.808 C 76.666 63.354,75.585 64.013,75.305 64.274 C 75.025 64.534,74.436 64.862,73.998 65.001 C 73.559 65.140,73.200 65.422,73.200 65.627 C 73.200 65.832,72.855 66.000,72.433 66.000 C 72.012 66.000,71.607 66.135,71.533 66.300 C 71.460 66.465,70.545 67.033,69.500 67.563 C 68.455 68.092,67.600 68.644,67.600 68.788 C 67.600 68.933,66.970 69.298,66.200 69.600 C 65.430 69.902,64.800 70.266,64.800 70.409 C 64.800 70.552,63.585 71.284,62.100 72.035 C 60.615 72.786,59.109 73.715,58.753 74.100 C 58.397 74.485,57.930 74.800,57.715 74.800 C 57.040 74.800,54.615 76.111,54.289 76.651 C 54.119 76.935,53.714 77.065,53.389 76.941 C 53.065 76.816,52.800 76.892,52.800 77.109 C 52.800 77.326,52.260 77.727,51.600 78.000 C 50.940 78.273,50.400 78.666,50.400 78.872 C 50.400 79.078,50.240 79.149,50.045 79.028 C 49.850 78.907,49.468 79.077,49.196 79.404 C 48.924 79.732,48.364 80.000,47.951 80.000 C 47.538 80.000,47.200 80.180,47.200 80.400 C 47.200 80.620,46.945 80.800,46.633 80.800 C 46.322 80.800,46.007 80.967,45.933 81.170 C 45.860 81.374,45.530 81.599,45.200 81.670 C 44.870 81.742,44.309 82.115,43.953 82.500 C 43.597 82.885,43.078 83.200,42.800 83.200 C 42.522 83.200,41.991 83.549,41.622 83.975 C 41.252 84.401,40.711 84.806,40.419 84.875 C 38.665 85.288,27.600 97.652,27.600 99.198 C 27.600 99.419,27.409 99.600,27.176 99.600 C 26.943 99.600,26.864 99.780,27.000 100.000 C 27.136 100.220,27.074 100.400,26.861 100.400 C 26.404 100.400,25.166 103.832,25.502 104.168 C 25.629 104.296,25.523 104.400,25.267 104.400 C 25.010 104.400,24.800 104.760,24.800 105.200 C 24.800 105.640,24.620 106.000,24.400 106.000 C 24.180 106.000,24.000 106.540,24.000 107.200 C 24.000 107.860,23.840 108.400,23.645 108.400 C 23.283 108.400,22.924 109.758,22.536 112.600 C 22.416 113.480,22.156 114.371,21.959 114.580 C 21.762 114.789,21.600 116.634,21.600 118.680 C 21.600 120.893,21.438 122.400,21.200 122.400 C 20.980 122.400,20.800 122.670,20.800 123.000 C 20.800 123.330,20.980 123.600,21.200 123.600 C 21.465 123.600,21.600 150.773,21.600 204.320 C 21.600 251.444,21.749 285.198,21.959 285.420 C 22.156 285.629,22.416 286.520,22.536 287.400 C 22.924 290.242,23.283 291.600,23.645 291.600 C 23.840 291.600,24.000 292.140,24.000 292.800 C 24.000 293.460,24.180 294.000,24.400 294.000 C 24.620 294.000,24.800 294.450,24.800 295.000 C 24.800 295.550,24.980 296.000,25.200 296.000 C 25.420 296.000,25.600 296.450,25.600 297.000 C 25.600 297.550,25.810 298.000,26.067 298.000 C 26.323 298.000,26.418 298.115,26.277 298.256 C 26.009 298.524,27.041 300.600,27.900 301.521 C 28.175 301.816,28.400 302.314,28.400 302.629 C 28.400 302.943,28.580 303.200,28.800 303.200 C 29.020 303.200,29.200 303.365,29.200 303.566 C 29.200 304.045,30.543 305.675,32.900 308.056 C 33.945 309.112,34.800 310.251,34.800 310.588 C 34.800 310.924,35.082 311.200,35.426 311.200 C 35.770 311.200,36.901 312.055,37.939 313.100 C 38.977 314.145,40.079 315.056,40.388 315.125 C 40.697 315.194,41.252 315.599,41.622 316.025 C 41.991 316.451,42.464 316.800,42.671 316.800 C 42.879 316.800,43.398 317.121,43.825 317.513 C 44.251 317.905,45.250 318.532,46.045 318.906 C 46.840 319.279,47.717 319.859,47.994 320.193 C 48.271 320.527,48.836 320.800,49.249 320.800 C 49.662 320.800,50.360 321.160,50.800 321.600 C 51.240 322.040,51.870 322.400,52.200 322.400 C 52.530 322.400,52.800 322.591,52.800 322.824 C 52.800 323.057,52.965 323.145,53.168 323.020 C 53.370 322.895,53.799 323.056,54.120 323.377 C 54.442 323.699,54.816 323.850,54.952 323.714 C 55.089 323.578,55.200 323.643,55.200 323.859 C 55.200 324.074,55.822 324.495,56.582 324.793 C 57.360 325.098,57.856 325.524,57.718 325.768 C 57.582 326.005,57.616 326.070,57.792 325.911 C 58.144 325.593,60.400 326.783,60.400 327.286 C 60.400 327.459,60.732 327.600,61.138 327.600 C 61.544 327.600,62.202 327.960,62.600 328.400 C 62.998 328.840,63.566 329.200,63.862 329.200 C 64.158 329.200,64.400 329.391,64.400 329.624 C 64.400 329.857,64.565 329.945,64.768 329.820 C 64.970 329.695,65.407 329.864,65.739 330.196 C 66.071 330.528,66.626 330.800,66.971 330.800 C 67.317 330.800,67.600 330.980,67.600 331.200 C 67.600 331.420,67.870 331.600,68.200 331.600 C 68.530 331.600,68.800 331.780,68.800 332.000 C 68.800 332.220,69.070 332.400,69.400 332.400 C 69.730 332.400,70.000 332.580,70.000 332.800 C 70.000 333.020,70.345 333.200,70.767 333.200 C 71.188 333.200,71.593 333.335,71.667 333.500 C 71.834 333.876,73.964 335.175,74.900 335.471 C 75.285 335.593,75.600 335.852,75.600 336.047 C 75.600 336.241,75.960 336.400,76.400 336.400 C 76.840 336.400,77.200 336.541,77.200 336.714 C 77.200 337.042,79.168 338.316,79.718 338.343 C 79.892 338.351,80.592 338.827,81.273 339.400 C 81.954 339.973,83.027 340.545,83.656 340.671 C 84.285 340.797,84.800 341.058,84.800 341.250 C 84.800 341.443,85.160 341.600,85.600 341.600 C 86.040 341.600,86.400 341.758,86.400 341.951 C 86.400 342.145,86.940 342.527,87.600 342.800 C 88.260 343.073,88.800 343.455,88.800 343.649 C 88.800 343.842,89.078 344.000,89.417 344.000 C 89.756 344.000,90.420 344.360,90.892 344.800 C 91.364 345.240,91.987 345.600,92.275 345.600 C 92.564 345.600,92.800 345.780,92.800 346.000 C 92.800 346.220,93.070 346.400,93.400 346.400 C 93.730 346.400,94.000 346.580,94.000 346.800 C 94.000 347.020,94.360 347.200,94.800 347.200 C 95.240 347.200,95.600 347.337,95.600 347.504 C 95.600 347.672,96.815 348.434,98.300 349.199 C 99.785 349.964,101.291 350.908,101.647 351.295 C 102.003 351.683,102.588 352.000,102.947 352.000 C 103.306 352.000,103.600 352.180,103.600 352.400 C 103.600 352.620,103.878 352.800,104.217 352.800 C 104.556 352.800,105.220 353.160,105.692 353.600 C 106.164 354.040,106.787 354.400,107.075 354.400 C 107.364 354.400,107.600 354.580,107.600 354.800 C 107.600 355.020,107.735 355.160,107.900 355.111 C 108.304 354.990,110.800 356.132,110.800 356.437 C 110.800 356.571,111.610 357.013,112.600 357.422 C 113.590 357.830,114.400 358.307,114.400 358.482 C 114.400 358.657,114.681 358.800,115.024 358.800 C 115.367 358.800,115.536 358.980,115.400 359.200 C 115.264 359.420,115.523 359.600,115.976 359.600 C 116.429 359.600,116.800 359.780,116.800 360.000 C 116.800 360.220,117.160 360.400,117.600 360.400 C 118.040 360.400,118.400 360.580,118.400 360.800 C 118.400 361.020,118.720 361.200,119.112 361.200 C 119.503 361.200,120.083 361.560,120.400 362.000 C 120.717 362.440,121.297 362.800,121.688 362.800 C 122.080 362.800,122.400 362.980,122.400 363.200 C 122.400 363.420,122.720 363.600,123.112 363.600 C 123.503 363.600,124.083 363.960,124.400 364.400 C 124.717 364.840,125.252 365.204,125.588 365.209 C 125.925 365.214,126.650 365.570,127.200 366.000 C 127.750 366.430,128.368 366.786,128.574 366.791 C 128.780 366.796,129.394 367.205,129.939 367.700 C 130.483 368.195,130.796 368.330,130.634 368.000 C 130.472 367.670,130.697 367.805,131.134 368.300 C 131.571 368.795,132.180 369.200,132.489 369.200 C 132.797 369.200,133.484 369.605,134.015 370.100 C 134.547 370.595,135.075 370.979,135.191 370.954 C 135.629 370.858,137.200 371.745,137.200 372.088 C 137.200 372.285,137.357 372.350,137.548 372.232 C 137.740 372.113,138.308 372.373,138.810 372.808 C 139.312 373.244,140.040 373.600,140.428 373.600 C 140.816 373.600,141.193 373.735,141.267 373.900 C 141.340 374.065,142.255 374.633,143.300 375.163 C 144.345 375.692,145.200 376.277,145.200 376.463 C 145.200 376.648,145.470 376.800,145.800 376.800 C 146.130 376.800,146.400 376.980,146.400 377.200 C 146.400 377.420,146.726 377.600,147.125 377.600 C 147.523 377.600,148.198 377.925,148.625 378.322 C 149.051 378.720,149.985 379.303,150.700 379.620 C 151.415 379.936,152.000 380.331,152.000 380.498 C 152.000 380.664,152.360 380.800,152.800 380.800 C 153.240 380.800,153.600 380.980,153.600 381.200 C 153.600 381.420,153.881 381.600,154.224 381.600 C 154.567 381.600,154.736 381.780,154.600 382.000 C 154.464 382.220,154.723 382.400,155.176 382.400 C 155.629 382.400,156.000 382.580,156.000 382.800 C 156.000 383.020,156.320 383.200,156.712 383.200 C 157.103 383.200,157.683 383.560,158.000 384.000 C 158.317 384.440,158.873 384.800,159.234 384.800 C 159.596 384.800,160.350 385.160,160.909 385.600 C 161.469 386.040,162.123 386.400,162.363 386.400 C 162.603 386.400,162.800 386.545,162.800 386.723 C 162.800 386.901,163.565 387.380,164.500 387.789 C 165.435 388.197,166.785 388.973,167.500 389.513 C 168.215 390.053,168.800 390.356,168.800 390.185 C 168.800 390.015,169.130 390.174,169.532 390.539 C 169.935 390.903,170.385 391.081,170.532 390.934 C 170.680 390.787,170.800 390.877,170.800 391.133 C 170.800 391.390,171.078 391.600,171.417 391.600 C 171.756 391.600,172.420 391.960,172.892 392.400 C 173.364 392.840,173.987 393.200,174.275 393.200 C 174.564 393.200,174.800 393.380,174.800 393.600 C 174.800 393.820,175.145 394.000,175.567 394.000 C 175.988 394.000,176.393 394.136,176.467 394.302 C 176.540 394.468,177.860 395.232,179.400 396.000 C 180.940 396.768,182.260 397.532,182.333 397.698 C 182.407 397.864,182.992 398.000,183.633 398.000 C 184.275 398.000,184.800 398.160,184.800 398.356 C 184.800 398.552,185.385 398.815,186.100 398.940 C 186.815 399.064,188.390 399.341,189.600 399.554 C 192.452 400.056,207.548 400.056,210.400 399.554 C 211.610 399.341,213.185 399.064,213.900 398.940 C 214.615 398.815,215.200 398.552,215.200 398.356 C 215.200 398.160,215.725 398.000,216.367 398.000 C 217.008 398.000,217.593 397.864,217.667 397.698 C 217.740 397.532,219.060 396.768,220.600 396.000 C 222.140 395.232,223.460 394.468,223.533 394.302 C 223.607 394.136,224.012 394.000,224.433 394.000 C 224.855 394.000,225.200 393.820,225.200 393.600 C 225.200 393.380,225.436 393.200,225.725 393.200 C 226.013 393.200,226.636 392.840,227.108 392.400 C 227.580 391.960,228.244 391.600,228.583 391.600 C 228.922 391.600,229.200 391.390,229.200 391.133 C 229.200 390.877,229.320 390.787,229.468 390.934 C 229.615 391.081,230.065 390.903,230.468 390.539 C 230.870 390.174,231.200 390.015,231.200 390.185 C 231.200 390.356,231.785 390.053,232.500 389.513 C 233.215 388.973,234.565 388.197,235.500 387.789 C 236.435 387.380,237.200 386.901,237.200 386.723 C 237.200 386.545,237.397 386.400,237.637 386.400 C 237.877 386.400,238.531 386.040,239.091 385.600 C 239.650 385.160,240.404 384.800,240.766 384.800 C 241.127 384.800,241.683 384.440,242.000 384.000 C 242.317 383.560,242.897 383.200,243.288 383.200 C 243.680 383.200,244.000 383.020,244.000 382.800 C 244.000 382.580,244.371 382.400,244.824 382.400 C 245.277 382.400,245.536 382.220,245.400 382.000 C 245.264 381.780,245.433 381.600,245.776 381.600 C 246.119 381.600,246.400 381.420,246.400 381.200 C 246.400 380.980,246.760 380.800,247.200 380.800 C 247.640 380.800,248.000 380.664,248.000 380.498 C 248.000 380.331,248.585 379.936,249.300 379.620 C 250.015 379.303,250.949 378.720,251.375 378.322 C 251.802 377.925,252.477 377.600,252.875 377.600 C 253.274 377.600,253.600 377.420,253.600 377.200 C 253.600 376.980,253.870 376.800,254.200 376.800 C 254.530 376.800,254.800 376.648,254.800 376.463 C 254.800 376.277,255.655 375.695,256.700 375.168 C 257.745 374.642,258.690 374.101,258.800 373.967 C 258.910 373.833,259.482 373.605,260.071 373.461 C 261.259 373.171,263.200 369.686,263.200 367.844 C 263.200 367.290,263.360 366.424,263.555 365.919 C 263.750 365.413,264.119 364.010,264.375 362.800 C 264.863 360.485,265.342 358.323,265.991 355.500 C 266.634 352.700,269.672 339.137,270.090 337.200 C 270.304 336.210,270.651 334.680,270.861 333.800 C 271.072 332.920,271.414 331.435,271.622 330.500 C 271.830 329.565,272.170 328.035,272.378 327.100 C 272.586 326.165,272.917 324.680,273.114 323.800 C 274.312 318.437,277.632 314.991,282.791 313.757 C 285.776 313.043,329.260 312.964,332.469 313.667 C 336.390 314.525,338.400 316.828,338.400 320.461 L 338.400 322.400 343.400 322.400 C 347.867 322.400,348.485 322.315,349.200 321.600 C 349.640 321.160,350.338 320.800,350.751 320.800 C 351.164 320.800,351.729 320.527,352.006 320.193 C 352.283 319.859,353.160 319.279,353.955 318.906 C 354.750 318.532,355.749 317.905,356.175 317.513 C 356.602 317.121,357.121 316.800,357.329 316.800 C 357.536 316.800,358.009 316.451,358.378 316.025 C 358.748 315.599,359.303 315.194,359.612 315.125 C 359.921 315.056,361.023 314.145,362.061 313.100 C 363.099 312.055,364.230 311.200,364.574 311.200 C 364.918 311.200,365.200 310.924,365.200 310.588 C 365.200 310.251,366.055 309.112,367.100 308.056 C 369.457 305.675,370.800 304.045,370.800 303.566 C 370.800 303.365,370.980 303.200,371.200 303.200 C 371.420 303.200,371.600 302.943,371.600 302.629 C 371.600 302.314,371.825 301.816,372.100 301.521 C 372.959 300.600,373.991 298.524,373.723 298.256 C 373.582 298.115,373.677 298.000,373.933 298.000 C 374.190 298.000,374.400 297.550,374.400 297.000 C 374.400 296.450,374.580 296.000,374.800 296.000 C 375.020 296.000,375.200 295.550,375.200 295.000 C 375.200 294.450,375.380 294.000,375.600 294.000 C 375.820 294.000,376.000 293.460,376.000 292.800 C 376.000 292.140,376.160 291.600,376.355 291.600 C 376.717 291.600,377.076 290.242,377.464 287.400 C 377.584 286.520,377.844 285.629,378.041 285.420 C 378.519 284.914,378.519 115.086,378.041 114.580 C 377.844 114.371,377.584 113.480,377.464 112.600 C 377.076 109.758,376.717 108.400,376.355 108.400 C 376.160 108.400,376.000 107.860,376.000 107.200 C 376.000 106.540,375.820 106.000,375.600 106.000 C 375.380 106.000,375.200 105.640,375.200 105.200 C 375.200 104.760,374.990 104.400,374.733 104.400 C 374.477 104.400,374.371 104.296,374.498 104.168 C 374.834 103.832,373.596 100.400,373.139 100.400 C 372.926 100.400,372.864 100.220,373.000 100.000 C 373.136 99.780,373.057 99.600,372.824 99.600 C 372.591 99.600,372.400 99.419,372.400 99.198 C 372.400 97.652,361.335 85.288,359.581 84.875 C 359.289 84.806,358.748 84.401,358.378 83.975 C 358.009 83.549,357.478 83.200,357.200 83.200 C 356.922 83.200,356.403 82.885,356.047 82.500 C 355.691 82.115,355.130 81.742,354.800 81.670 C 354.470 81.599,354.140 81.374,354.067 81.170 C 353.993 80.967,353.678 80.800,353.367 80.800 C 353.055 80.800,352.800 80.620,352.800 80.400 C 352.800 80.180,352.462 80.000,352.049 80.000 C 351.636 80.000,351.076 79.732,350.804 79.404 C 350.532 79.077,350.150 78.907,349.955 79.028 C 349.760 79.149,349.600 79.057,349.600 78.824 C 349.600 78.591,349.330 78.400,349.000 78.400 C 348.670 78.400,348.400 78.220,348.400 78.000 C 348.400 77.780,348.130 77.600,347.800 77.600 C 347.470 77.600,347.200 77.401,347.200 77.157 C 347.200 76.914,346.935 76.816,346.611 76.941 C 346.286 77.065,345.881 76.935,345.711 76.651 C 345.385 76.111,342.960 74.800,342.285 74.800 C 342.070 74.800,341.603 74.485,341.247 74.100 C 340.891 73.715,339.385 72.786,337.900 72.035 C 336.415 71.284,335.200 70.552,335.200 70.409 C 335.200 70.266,334.570 69.902,333.800 69.600 C 333.030 69.298,332.400 68.933,332.400 68.788 C 332.400 68.644,331.545 68.092,330.500 67.563 C 329.455 67.033,328.540 66.465,328.467 66.300 C 328.393 66.135,327.988 66.000,327.567 66.000 C 327.145 66.000,326.800 65.832,326.800 65.627 C 326.800 65.422,326.441 65.140,326.002 65.001 C 325.564 64.862,324.975 64.534,324.695 64.274 C 324.415 64.013,323.334 63.354,322.293 62.808 C 321.252 62.263,320.400 61.678,320.400 61.508 C 320.400 61.339,320.265 61.245,320.100 61.299 C 319.935 61.354,319.080 60.959,318.200 60.423 C 317.320 59.886,316.474 59.436,316.320 59.423 C 316.166 59.410,315.815 59.175,315.540 58.900 C 315.265 58.625,314.716 58.400,314.320 58.400 C 313.924 58.400,313.600 58.242,313.600 58.049 C 313.600 57.855,313.060 57.473,312.400 57.200 C 311.740 56.927,311.200 56.545,311.200 56.351 C 311.200 56.158,310.840 56.000,310.400 56.000 C 309.960 56.000,309.600 55.820,309.600 55.600 C 309.600 55.380,309.240 55.200,308.800 55.200 C 308.360 55.200,308.000 55.020,308.000 54.800 C 308.000 54.580,307.730 54.400,307.400 54.400 C 307.070 54.400,306.800 54.248,306.800 54.063 C 306.800 53.877,305.945 53.292,304.900 52.763 C 303.855 52.233,302.940 51.665,302.867 51.500 C 302.793 51.335,302.468 51.200,302.143 51.200 C 301.818 51.200,301.664 51.020,301.800 50.800 C 301.936 50.580,301.677 50.400,301.224 50.400 C 300.771 50.400,300.400 50.220,300.400 50.000 C 300.400 49.780,300.040 49.600,299.600 49.600 C 299.160 49.600,298.800 49.452,298.800 49.271 C 298.800 49.091,297.900 48.536,296.800 48.039 C 295.700 47.542,294.800 46.969,294.800 46.767 C 294.800 46.565,294.440 46.400,294.000 46.400 C 293.560 46.400,293.200 46.220,293.200 46.000 C 293.200 45.780,292.930 45.600,292.600 45.600 C 292.270 45.600,292.000 45.420,292.000 45.200 C 292.000 44.980,291.811 44.800,291.581 44.800 C 291.350 44.800,290.177 44.170,288.973 43.400 C 287.769 42.630,286.518 42.000,286.192 42.000 C 285.867 42.000,285.600 41.820,285.600 41.600 C 285.600 41.380,285.306 41.200,284.947 41.200 C 284.588 41.200,284.003 40.885,283.647 40.500 C 283.291 40.115,282.730 39.741,282.400 39.670 C 282.070 39.598,281.740 39.373,281.667 39.170 C 281.593 38.966,281.228 38.800,280.855 38.800 C 280.482 38.800,279.917 38.440,279.600 38.000 C 279.283 37.560,278.829 37.200,278.591 37.200 C 277.925 37.200,276.007 36.237,276.003 35.900 C 276.001 35.735,275.706 35.600,275.347 35.600 C 274.988 35.600,274.403 35.285,274.047 34.900 C 273.691 34.515,273.130 34.141,272.800 34.070 C 272.470 33.998,272.140 33.773,272.067 33.570 C 271.993 33.366,271.578 33.200,271.143 33.200 C 270.708 33.200,270.464 33.020,270.600 32.800 C 270.736 32.580,270.499 32.400,270.073 32.400 C 269.647 32.400,269.065 32.120,268.781 31.777 C 268.496 31.434,267.626 30.887,266.846 30.561 C 266.066 30.236,265.332 29.841,265.214 29.684 C 264.908 29.278,262.728 27.991,261.900 27.729 C 261.515 27.607,261.200 27.328,261.200 27.111 C 261.200 26.893,260.935 26.816,260.611 26.941 C 260.286 27.065,259.881 26.927,259.711 26.633 C 259.540 26.339,258.574 25.726,257.565 25.269 C 256.556 24.813,255.499 24.161,255.216 23.820 C 254.934 23.479,254.454 23.200,254.151 23.200 C 253.848 23.200,253.600 23.020,253.600 22.800 C 253.600 22.580,253.328 22.400,252.995 22.400 C 252.223 22.400,250.796 21.601,249.957 20.700 C 249.599 20.315,249.138 20.000,248.933 20.000 C 248.312 20.000,246.406 19.021,246.403 18.700 C 246.401 18.535,246.119 18.400,245.776 18.400 C 245.433 18.400,245.264 18.220,245.400 18.000 C 245.536 17.780,245.277 17.600,244.824 17.600 C 244.371 17.600,244.000 17.409,244.000 17.176 C 244.000 16.943,243.835 16.855,243.632 16.980 C 243.430 17.105,242.993 16.936,242.661 16.604 C 242.329 16.272,241.898 16.000,241.704 16.000 C 241.510 16.000,240.916 15.595,240.385 15.100 C 239.853 14.605,239.370 14.245,239.309 14.300 C 239.019 14.565,238.474 14.328,237.686 13.594 C 237.210 13.151,235.511 12.136,233.911 11.338 C 232.310 10.540,230.522 9.553,229.938 9.144 C 229.354 8.735,228.589 8.400,228.238 8.400 C 227.887 8.400,227.600 8.220,227.600 8.000 C 227.600 7.780,227.306 7.600,226.947 7.600 C 226.588 7.600,226.003 7.281,225.647 6.891 C 225.291 6.501,223.740 5.557,222.200 4.793 C 220.660 4.029,219.340 3.268,219.267 3.102 C 219.193 2.936,218.698 2.800,218.167 2.800 C 217.635 2.800,217.200 2.620,217.200 2.400 C 217.200 2.180,216.671 2.000,216.024 2.000 C 215.377 2.000,214.736 1.820,214.600 1.600 C 214.464 1.380,213.903 1.200,213.353 1.200 C 212.803 1.200,212.448 1.046,212.564 0.858 C 213.013 0.131,197.135 -0.252,189.290 0.295 M272.336 96.000 C 272.517 100.006,271.377 116.796,270.428 124.100 L 270.129 126.400 290.904 126.400 C 309.194 126.400,311.842 126.477,313.040 127.046 L 314.400 127.691 314.400 132.446 C 314.400 135.061,314.239 137.200,314.042 137.200 C 313.844 137.200,313.656 139.567,313.623 142.460 C 313.590 145.354,313.420 148.009,313.245 148.360 C 313.070 148.712,312.885 149.990,312.833 151.200 C 312.782 152.410,312.574 153.571,312.370 153.780 C 312.167 153.989,312.000 155.114,312.000 156.280 C 312.000 157.446,311.855 158.400,311.678 158.400 C 311.501 158.400,311.312 159.160,311.257 160.090 C 311.202 161.019,311.012 161.874,310.834 161.990 C 310.567 162.163,309.921 165.069,309.808 166.600 C 309.792 166.820,309.658 167.193,309.510 167.428 C 309.249 167.844,308.942 169.042,308.516 171.305 C 308.401 171.913,308.149 172.508,307.954 172.629 C 307.759 172.749,307.600 173.191,307.600 173.611 C 307.600 174.032,307.240 175.017,306.800 175.800 C 306.360 176.583,306.000 177.410,306.000 177.637 C 306.000 178.034,304.007 182.540,303.098 184.200 C 302.857 184.640,302.179 185.900,301.592 187.000 C 294.441 200.390,284.071 211.687,270.518 220.851 C 268.933 221.923,267.525 222.800,267.390 222.800 C 267.255 222.800,266.392 223.306,265.472 223.924 C 263.310 225.378,253.861 230.019,250.000 231.525 C 244.004 233.863,234.303 236.800,232.578 236.800 C 232.229 236.800,231.062 237.633,229.987 238.651 C 228.912 239.669,227.620 240.788,227.116 241.137 C 226.612 241.486,225.851 242.093,225.425 242.486 C 224.998 242.879,224.413 243.200,224.125 243.200 C 223.836 243.200,223.600 243.350,223.600 243.532 C 223.600 243.715,223.105 244.114,222.500 244.418 C 221.895 244.722,220.950 245.264,220.400 245.622 C 218.575 246.810,212.643 249.119,209.600 249.826 C 205.298 250.825,205.600 250.063,205.600 259.921 C 205.600 269.791,205.853 271.096,208.565 275.200 C 211.780 280.067,223.133 287.692,231.800 290.806 C 232.240 290.964,233.050 291.285,233.600 291.520 C 234.150 291.755,235.320 292.164,236.200 292.429 C 237.080 292.694,238.160 293.045,238.600 293.210 C 239.762 293.644,242.701 294.403,247.706 295.559 C 248.754 295.802,250.713 296.000,252.059 296.000 C 259.768 296.000,263.397 301.552,259.315 307.100 C 257.339 309.787,261.799 309.600,199.692 309.600 L 143.344 309.600 141.660 308.159 C 139.021 305.899,138.250 303.412,139.365 300.749 C 140.719 297.513,142.773 296.445,148.600 295.945 C 154.058 295.477,155.965 295.180,156.226 294.758 C 156.348 294.561,156.829 294.400,157.295 294.400 C 157.762 294.400,158.696 294.224,159.372 294.009 C 163.874 292.575,165.901 291.907,166.600 291.627 C 167.040 291.451,167.850 291.127,168.400 290.907 C 168.950 290.687,169.850 290.326,170.400 290.104 C 182.497 285.231,192.184 277.171,193.841 270.600 C 194.611 267.544,194.248 252.618,193.400 252.496 C 188.717 251.817,178.049 247.305,175.319 244.848 C 174.923 244.492,173.969 243.719,173.200 243.130 C 172.430 242.542,171.009 241.324,170.042 240.423 C 169.075 239.523,167.815 238.693,167.242 238.579 C 166.669 238.465,165.647 238.198,164.972 237.986 C 164.296 237.774,163.439 237.600,163.066 237.600 C 162.694 237.600,162.077 237.438,161.695 237.239 C 161.313 237.040,160.190 236.659,159.200 236.392 C 151.154 234.221,134.617 226.402,129.800 222.492 C 129.580 222.313,128.500 221.558,127.400 220.813 C 120.011 215.811,104.400 200.179,104.400 197.781 C 104.400 197.663,104.040 197.180,103.600 196.708 C 103.160 196.236,102.800 195.613,102.800 195.325 C 102.800 195.036,102.665 194.800,102.499 194.800 C 102.334 194.800,101.753 193.945,101.209 192.900 C 100.665 191.855,100.125 190.910,100.010 190.800 C 99.030 189.865,94.000 179.324,94.000 178.204 C 94.000 177.872,93.820 177.600,93.600 177.600 C 93.380 177.600,93.200 177.150,93.200 176.600 C 93.200 176.050,93.020 175.600,92.800 175.600 C 92.580 175.600,92.400 175.161,92.400 174.624 C 92.400 174.087,92.241 173.549,92.046 173.429 C 91.737 173.238,91.505 172.417,91.071 169.993 C 91.011 169.659,90.806 169.133,90.615 168.825 C 90.424 168.516,90.218 167.709,90.156 167.032 C 90.094 166.354,89.766 164.810,89.427 163.600 C 89.087 162.390,88.807 160.830,88.805 160.133 C 88.802 159.437,88.630 158.807,88.422 158.733 C 88.214 158.660,88.002 157.655,87.951 156.500 C 87.899 155.345,87.709 154.400,87.529 154.400 C 87.348 154.400,87.200 153.061,87.200 151.424 C 87.200 149.787,87.020 148.336,86.800 148.200 C 86.567 148.056,86.400 145.804,86.400 142.800 C 86.400 139.796,86.233 137.544,86.000 137.400 C 85.770 137.258,85.600 135.144,85.600 132.422 L 85.600 127.691 86.960 127.046 C 88.155 126.479,90.703 126.400,107.807 126.400 L 127.293 126.400 127.056 123.900 C 126.730 120.470,126.091 113.174,125.605 107.337 C 125.146 101.823,125.065 93.468,125.468 93.066 C 125.615 92.918,158.690 92.843,198.968 92.899 L 272.200 93.000 272.336 96.000 M97.203 140.300 C 97.212 145.314,99.534 159.391,101.179 164.400 C 101.359 164.950,101.739 166.210,102.023 167.200 C 102.307 168.190,102.688 169.171,102.870 169.380 C 103.051 169.589,103.200 170.050,103.200 170.405 C 103.200 170.760,103.560 171.795,104.000 172.706 C 104.440 173.616,104.800 174.640,104.800 174.981 C 104.800 175.321,104.980 175.600,105.200 175.600 C 105.420 175.600,105.600 175.845,105.600 176.145 C 105.600 177.207,109.413 184.173,112.499 188.747 C 117.797 196.602,132.156 210.800,134.802 210.800 C 135.021 210.800,135.200 210.950,135.200 211.132 C 135.200 211.315,135.695 211.715,136.300 212.020 C 136.905 212.326,138.120 213.042,139.000 213.613 C 141.857 215.465,151.279 220.000,152.271 220.000 C 152.344 220.000,151.340 217.885,150.040 215.300 C 147.144 209.543,145.200 205.367,145.200 204.900 C 145.200 204.708,144.840 203.805,144.400 202.894 C 143.960 201.984,143.600 201.048,143.600 200.814 C 143.600 200.580,143.420 200.032,143.200 199.595 C 142.980 199.158,142.620 198.442,142.400 198.005 C 142.180 197.568,142.000 196.884,142.000 196.485 C 142.000 196.086,141.851 195.589,141.670 195.380 C 141.488 195.171,141.110 194.190,140.831 193.200 C 140.551 192.210,140.160 191.087,139.961 190.705 C 139.762 190.323,139.600 189.659,139.600 189.229 C 139.600 188.799,139.441 188.349,139.246 188.229 C 139.051 188.108,138.796 187.513,138.679 186.905 C 138.562 186.297,138.287 185.170,138.069 184.400 C 135.166 174.156,132.710 163.307,130.780 152.200 C 130.203 148.876,129.737 146.220,129.231 143.376 C 128.994 142.043,128.800 140.378,128.800 139.676 L 128.800 138.400 113.000 138.400 L 97.200 138.400 97.203 140.300 M269.067 138.667 C 268.920 138.813,268.800 139.634,268.800 140.490 C 268.800 141.345,268.634 142.800,268.431 143.723 C 268.227 144.645,267.855 146.750,267.604 148.400 C 267.101 151.695,264.637 164.742,263.978 167.600 C 263.749 168.590,263.104 171.200,262.544 173.400 C 261.983 175.600,261.374 178.030,261.189 178.800 C 261.004 179.570,260.646 180.920,260.394 181.800 C 260.141 182.680,259.838 183.897,259.721 184.505 C 259.604 185.113,259.349 185.708,259.154 185.829 C 258.959 185.949,258.800 186.566,258.800 187.200 C 258.800 187.834,258.620 188.464,258.400 188.600 C 258.180 188.736,258.000 189.276,258.000 189.800 C 258.000 190.324,257.820 190.864,257.600 191.000 C 257.380 191.136,257.200 191.676,257.200 192.200 C 257.200 192.724,257.056 193.242,256.879 193.351 C 256.703 193.460,256.307 194.472,256.000 195.600 C 255.693 196.728,255.297 197.740,255.121 197.849 C 254.944 197.958,254.800 198.399,254.800 198.829 C 254.800 199.259,254.641 199.923,254.447 200.305 C 254.252 200.687,253.911 201.450,253.687 202.000 C 253.464 202.550,253.007 203.630,252.672 204.400 C 252.337 205.170,251.676 206.782,251.204 207.983 C 250.732 209.184,249.259 212.299,247.930 214.906 C 246.600 217.513,245.614 219.747,245.737 219.871 C 246.113 220.247,259.609 213.430,259.933 212.700 C 260.007 212.535,260.244 212.400,260.461 212.400 C 260.839 212.400,264.384 210.118,264.800 209.607 C 264.910 209.472,265.630 208.923,266.400 208.386 C 277.219 200.852,288.068 186.834,293.245 173.700 C 293.662 172.642,294.255 171.160,294.764 169.900 C 295.324 168.513,295.660 167.518,296.046 166.100 C 296.241 165.385,296.592 164.125,296.827 163.300 C 298.826 156.269,301.294 139.427,300.448 138.581 C 300.156 138.289,269.360 138.373,269.067 138.667 M337.600 325.600 C 337.600 325.863,347.148 325.990,365.500 325.972 C 381.440 325.956,393.057 325.796,392.600 325.600 C 391.434 325.099,337.600 325.099,337.600 325.600 M394.429 326.513 C 394.775 326.781,395.265 327.360,395.517 327.800 C 395.873 328.420,395.978 328.457,395.988 327.962 C 396.001 327.287,394.791 325.991,394.169 326.013 C 393.966 326.020,394.083 326.245,394.429 326.513 M337.056 327.284 C 336.921 327.788,336.827 328.560,336.846 329.000 C 336.865 329.440,337.045 329.098,337.246 328.240 C 337.636 326.578,337.470 325.740,337.056 327.284 M336.244 330.853 C 335.917 332.438,335.611 333.944,335.381 335.100 C 335.261 335.705,335.002 336.830,334.806 337.600 C 334.611 338.370,334.267 339.810,334.043 340.800 C 333.819 341.790,333.344 343.832,332.989 345.338 C 332.634 346.844,332.442 348.175,332.562 348.296 C 332.813 348.546,333.049 347.920,333.352 346.200 C 333.587 344.871,334.134 342.345,334.781 339.600 C 335.014 338.610,335.374 336.990,335.581 336.000 C 335.788 335.010,336.147 333.315,336.379 332.234 C 336.611 331.152,336.719 330.186,336.620 330.086 C 336.520 329.987,336.351 330.332,336.244 330.853 M395.654 331.400 C 395.619 331.840,395.489 332.650,395.367 333.200 C 395.175 334.063,395.207 334.103,395.598 333.490 C 395.847 333.099,395.977 332.289,395.886 331.690 C 395.778 330.979,395.697 330.879,395.654 331.400 M347.474 334.295 C 347.044 335.025,346.757 337.393,347.170 336.800 C 347.400 336.470,347.591 335.795,347.594 335.300 L 347.600 334.400 362.967 334.400 C 373.062 334.400,378.403 334.541,378.537 334.810 C 378.649 335.036,378.694 334.990,378.637 334.710 C 378.520 334.135,347.808 333.727,347.474 334.295 M394.629 336.229 C 394.481 336.815,394.451 337.384,394.561 337.494 C 394.671 337.604,394.881 337.215,395.029 336.629 C 395.176 336.042,395.206 335.473,395.096 335.363 C 394.986 335.253,394.776 335.642,394.629 336.229 M378.046 336.667 C 378.021 336.924,377.884 337.464,377.741 337.867 C 377.540 338.436,377.594 338.497,377.979 338.142 C 378.252 337.891,378.389 337.351,378.284 336.942 C 378.179 336.534,378.072 336.410,378.046 336.667 M346.449 338.200 C 346.416 338.640,346.296 339.450,346.183 340.000 L 345.977 341.000 346.406 340.019 C 346.642 339.479,346.761 338.669,346.672 338.219 C 346.513 337.421,346.507 337.421,346.449 338.200 M393.888 339.333 C 393.410 340.549,393.524 341.573,394.039 340.687 C 394.267 340.296,394.391 339.666,394.315 339.287 C 394.188 338.660,394.151 338.664,393.888 339.333 M377.062 340.947 C 376.897 341.578,376.856 342.189,376.971 342.304 C 377.293 342.627,377.687 341.338,377.515 340.523 C 377.403 339.990,377.284 340.101,377.062 340.947 M345.654 341.600 C 345.619 341.930,345.477 342.650,345.340 343.200 C 345.148 343.972,345.202 344.097,345.577 343.749 C 345.844 343.501,345.985 342.781,345.891 342.149 C 345.797 341.517,345.690 341.270,345.654 341.600 M393.067 343.067 C 392.920 343.213,392.811 343.708,392.825 344.167 C 392.849 344.933,392.882 344.923,393.234 344.042 C 393.626 343.063,393.544 342.589,393.067 343.067 M376.288 344.133 C 375.842 345.266,375.915 345.845,376.438 345.322 C 376.678 345.082,376.808 344.551,376.726 344.142 C 376.582 343.426,376.566 343.426,376.288 344.133 M344.673 345.753 C 344.523 346.145,344.411 346.766,344.425 347.133 C 344.442 347.575,344.581 347.474,344.837 346.834 C 345.049 346.303,345.161 345.682,345.085 345.454 C 345.009 345.227,344.824 345.361,344.673 345.753 M368.633 346.400 C 364.393 346.518,361.411 346.763,361.332 347.000 C 361.160 347.518,375.249 347.311,375.772 346.788 C 376.362 346.198,376.199 346.189,368.633 346.400 M332.054 349.400 C 332.019 349.840,331.889 350.650,331.767 351.200 C 331.575 352.063,331.607 352.103,331.998 351.490 C 332.247 351.099,332.377 350.289,332.286 349.690 C 332.178 348.979,332.097 348.879,332.054 349.400 M343.800 349.600 C 343.650 350.073,343.617 350.550,343.727 350.660 C 343.837 350.770,344.050 350.473,344.200 350.000 C 344.350 349.527,344.383 349.050,344.273 348.940 C 344.163 348.830,343.950 349.127,343.800 349.600 M360.902 349.200 C 361.035 349.690,362.229 349.837,367.433 350.000 L 373.800 350.200 373.665 351.200 C 373.563 351.962,373.643 352.091,374.003 351.742 C 375.606 350.189,374.447 349.804,367.812 349.689 C 363.349 349.612,361.330 349.432,361.087 349.089 C 360.836 348.736,360.784 348.767,360.902 349.200 M391.206 350.900 C 391.211 351.628,391.286 351.685,391.600 351.200 C 392.101 350.424,392.101 350.000,391.600 350.000 C 391.380 350.000,391.203 350.405,391.206 350.900 M331.254 353.000 C 331.219 353.440,331.089 354.250,330.967 354.800 C 330.775 355.663,330.807 355.703,331.198 355.090 C 331.447 354.699,331.577 353.889,331.486 353.290 C 331.378 352.579,331.297 352.479,331.254 353.000 M343.092 352.642 C 342.931 352.802,342.805 353.308,342.812 353.767 C 342.823 354.536,342.856 354.545,343.240 353.885 C 343.688 353.116,343.573 352.160,343.092 352.642 M390.667 353.467 C 390.520 353.613,390.411 354.108,390.425 354.567 C 390.449 355.333,390.482 355.323,390.834 354.442 C 391.226 353.463,391.144 352.989,390.667 353.467 M373.088 354.133 C 372.642 355.266,372.715 355.845,373.238 355.322 C 373.478 355.082,373.608 354.551,373.526 354.142 C 373.382 353.426,373.366 353.426,373.088 354.133 M330.454 356.400 C 330.419 356.730,330.277 357.450,330.140 358.000 C 329.948 358.772,330.002 358.897,330.377 358.549 C 330.644 358.301,330.785 357.581,330.691 356.949 C 330.597 356.317,330.490 356.070,330.454 356.400 M389.867 357.067 C 389.720 357.213,389.611 357.708,389.625 358.167 C 389.649 358.933,389.682 358.923,390.034 358.042 C 390.426 357.063,390.344 356.589,389.867 357.067 M372.200 358.000 C 372.050 358.473,372.017 358.950,372.127 359.060 C 372.237 359.170,372.450 358.873,372.600 358.400 C 372.750 357.927,372.783 357.450,372.673 357.340 C 372.563 357.230,372.350 357.527,372.200 358.000 M341.492 359.442 C 341.331 359.602,341.205 360.108,341.212 360.567 C 341.223 361.336,341.256 361.345,341.640 360.685 C 342.088 359.916,341.973 358.960,341.492 359.442 M329.654 360.000 C 329.619 360.330,329.477 361.050,329.340 361.600 C 329.148 362.372,329.202 362.497,329.577 362.149 C 329.844 361.901,329.985 361.181,329.891 360.549 C 329.797 359.917,329.690 359.670,329.654 360.000 M389.092 360.242 C 388.931 360.402,388.811 360.998,388.825 361.567 L 388.851 362.600 389.237 361.634 C 389.653 360.594,389.567 359.767,389.092 360.242 M364.900 361.099 C 360.760 361.171,358.000 361.375,358.000 361.609 C 358.000 362.311,371.010 362.111,371.600 361.400 C 371.874 361.070,372.031 360.840,371.949 360.890 C 371.867 360.939,368.695 361.034,364.900 361.099 M340.667 363.067 C 340.520 363.213,340.411 363.708,340.425 364.167 C 340.449 364.933,340.482 364.923,340.834 364.042 C 341.226 363.063,341.144 362.589,340.667 363.067 M357.488 363.333 C 357.042 364.466,357.115 365.045,357.638 364.522 C 357.878 364.282,358.008 363.751,357.926 363.342 C 357.782 362.626,357.766 362.626,357.488 363.333 M328.854 363.667 C 328.825 364.034,328.684 364.664,328.541 365.067 C 328.341 365.633,328.395 365.696,328.775 365.346 C 329.046 365.097,329.187 364.467,329.088 363.946 C 328.990 363.426,328.884 363.300,328.854 363.667 M388.292 363.842 C 388.131 364.002,388.011 364.598,388.025 365.167 L 388.051 366.200 388.437 365.234 C 388.853 364.194,388.767 363.367,388.292 363.842 M359.600 365.475 C 365.931 365.762,372.710 365.775,372.539 365.500 C 372.437 365.335,368.898 365.235,364.676 365.278 C 360.454 365.321,358.170 365.410,359.600 365.475 M339.606 367.300 C 339.611 368.028,339.686 368.085,340.000 367.600 C 340.501 366.824,340.501 366.400,340.000 366.400 C 339.780 366.400,339.603 366.805,339.606 367.300 M372.200 367.200 C 372.050 367.673,372.017 368.150,372.127 368.260 C 372.237 368.370,372.450 368.073,372.600 367.600 C 372.750 367.127,372.783 366.650,372.673 366.540 C 372.563 366.430,372.350 366.727,372.200 367.200 M328.054 367.267 C 328.025 367.634,327.884 368.264,327.741 368.667 C 327.541 369.233,327.595 369.296,327.975 368.946 C 328.246 368.697,328.387 368.067,328.288 367.546 C 328.190 367.026,328.084 366.900,328.054 367.267 M387.467 367.467 C 387.320 367.613,387.215 368.198,387.234 368.767 C 387.268 369.781,387.275 369.779,387.621 368.620 C 387.985 367.403,387.931 367.002,387.467 367.467 M339.067 369.867 C 338.920 370.013,338.811 370.508,338.825 370.967 C 338.849 371.733,338.882 371.723,339.234 370.842 C 339.626 369.863,339.544 369.389,339.067 369.867 M371.400 370.800 C 371.248 371.491,371.214 372.147,371.324 372.257 C 371.434 372.367,371.648 371.891,371.800 371.200 C 371.952 370.509,371.986 369.853,371.876 369.743 C 371.766 369.633,371.552 370.109,371.400 370.800 M327.246 370.667 C 327.221 370.924,327.084 371.464,326.941 371.867 C 326.740 372.436,326.794 372.497,327.179 372.142 C 327.452 371.891,327.589 371.351,327.484 370.942 C 327.379 370.534,327.272 370.410,327.246 370.667 M386.649 371.015 C 386.512 371.373,386.416 372.056,386.436 372.533 C 386.462 373.147,386.585 373.008,386.859 372.056 C 387.257 370.672,387.094 369.858,386.649 371.015 M338.292 373.042 C 338.131 373.202,338.011 373.798,338.025 374.367 L 338.051 375.400 338.437 374.434 C 338.853 373.394,338.767 372.567,338.292 373.042 M370.649 373.815 C 370.512 374.173,370.416 374.856,370.436 375.333 C 370.462 375.947,370.585 375.808,370.859 374.856 C 371.257 373.472,371.094 372.658,370.649 373.815 M385.867 374.267 C 385.720 374.413,385.616 375.088,385.636 375.767 L 385.672 377.000 386.059 375.656 C 386.445 374.313,386.369 373.764,385.867 374.267 M385.049 377.815 C 384.912 378.173,384.818 378.946,384.840 379.533 C 384.873 380.391,384.952 380.295,385.246 379.040 C 385.622 377.439,385.495 376.653,385.049 377.815 M322.778 379.463 C 321.868 380.430,321.718 380.714,322.337 380.300 C 323.177 379.738,324.661 378.000,324.301 378.000 C 324.222 378.000,323.537 378.658,322.778 379.463 M319.100 381.850 C 316.980 382.952,316.533 384.610,317.824 386.580 C 318.492 387.599,319.600 388.228,319.600 387.587 C 319.600 387.374,319.395 387.200,319.144 387.200 C 316.882 387.200,317.090 383.131,319.400 382.178 C 320.390 381.770,321.200 381.293,321.200 381.118 C 321.200 380.729,321.379 380.666,319.100 381.850 M384.267 381.067 C 384.120 381.213,384.000 381.681,384.000 382.105 C 384.000 383.031,382.688 385.046,381.246 386.336 C 380.351 387.136,380.327 387.207,381.085 386.830 C 382.156 386.295,384.177 383.417,384.547 381.900 C 384.819 380.786,384.750 380.583,384.267 381.067 M334.929 388.300 C 342.811 388.361,355.591 388.361,363.329 388.300 C 371.068 388.239,364.620 388.189,349.000 388.190 C 333.380 388.190,327.048 388.239,334.929 388.300 " stroke="none" fill="#0474ac" fill-rule="evenodd"></path><path id="path4" d="M162.100 93.100 C 182.285 93.157,215.315 93.157,235.500 93.100 C 255.685 93.043,239.170 92.996,198.800 92.996 C 158.430 92.996,141.915 93.043,162.100 93.100 M271.714 106.600 C 271.717 107.700,271.795 108.103,271.887 107.495 C 271.979 106.886,271.977 105.986,271.882 105.495 C 271.787 105.003,271.711 105.500,271.714 106.600 M125.714 107.000 C 125.717 108.100,125.795 108.503,125.887 107.895 C 125.979 107.286,125.977 106.386,125.882 105.895 C 125.787 105.403,125.711 105.900,125.714 107.000 M270.893 116.800 C 270.893 117.570,270.975 117.885,271.076 117.500 C 271.176 117.115,271.176 116.485,271.076 116.100 C 270.975 115.715,270.893 116.030,270.893 116.800 M126.501 117.400 C 126.505 118.280,126.587 118.593,126.683 118.095 C 126.779 117.598,126.775 116.878,126.675 116.495 C 126.575 116.113,126.496 116.520,126.501 117.400 M127.254 125.289 L 127.200 126.378 107.220 126.489 C 94.584 126.559,87.092 126.747,86.839 127.000 C 86.573 127.267,93.132 127.363,106.516 127.289 C 128.069 127.170,127.875 127.190,127.489 125.151 C 127.321 124.264,127.305 124.273,127.254 125.289 M270.219 126.779 C 270.473 127.033,278.460 127.220,292.090 127.290 C 306.404 127.363,313.427 127.267,313.160 127.000 C 312.907 126.746,304.920 126.560,291.290 126.490 C 276.976 126.416,269.953 126.513,270.219 126.779 M96.800 141.249 C 96.800 143.041,96.988 145.699,97.217 147.154 C 97.447 148.609,97.816 150.970,98.038 152.400 C 98.807 157.361,100.522 164.242,102.275 169.400 C 103.664 173.485,109.008 184.892,109.647 185.133 C 109.841 185.207,110.000 185.440,110.000 185.651 C 110.000 186.009,113.849 191.954,114.369 192.400 C 114.497 192.510,115.621 193.860,116.866 195.400 C 119.280 198.384,125.637 204.681,128.065 206.494 C 128.871 207.096,129.771 207.822,130.065 208.107 C 130.359 208.393,131.230 209.062,132.000 209.594 C 132.770 210.126,133.490 210.660,133.600 210.781 C 133.825 211.028,134.006 211.139,139.000 214.101 C 140.980 215.276,144.220 217.002,146.200 217.938 C 148.180 218.874,150.113 219.811,150.495 220.020 C 153.344 221.579,153.276 220.736,150.034 214.268 C 148.513 211.234,146.516 206.827,145.597 204.475 C 144.677 202.124,143.774 199.840,143.589 199.400 C 143.404 198.960,143.024 197.880,142.745 197.000 C 142.465 196.120,142.093 195.229,141.918 195.020 C 141.743 194.811,141.600 194.237,141.600 193.744 C 141.600 193.251,141.420 192.736,141.200 192.600 C 140.980 192.464,140.800 192.001,140.800 191.571 C 140.800 191.141,140.638 190.477,140.439 190.095 C 140.240 189.713,139.863 188.590,139.600 187.600 C 139.337 186.610,138.960 185.487,138.761 185.105 C 138.562 184.723,138.400 183.969,138.400 183.429 C 138.400 182.889,138.220 182.336,138.000 182.200 C 137.780 182.064,137.600 181.434,137.600 180.800 C 137.600 180.166,137.440 179.548,137.244 179.427 C 137.049 179.306,136.792 178.621,136.673 177.904 C 136.473 176.694,136.213 175.576,135.160 171.400 C 134.703 169.589,134.564 168.927,132.886 160.600 C 132.222 157.300,131.279 152.080,130.791 149.000 C 130.303 145.920,129.694 142.230,129.437 140.800 L 128.970 138.200 112.885 138.095 L 96.800 137.991 96.800 141.249 M268.655 138.601 C 268.284 139.568,267.860 144.628,268.175 144.337 C 268.331 144.193,268.581 142.843,268.729 141.337 L 269.000 138.600 284.800 138.600 C 295.101 138.600,300.582 138.739,300.548 139.000 C 300.242 141.358,300.108 147.966,300.385 147.091 C 300.578 146.482,300.786 144.232,300.849 142.091 L 300.962 138.200 284.926 138.096 C 270.864 138.004,268.860 138.066,268.655 138.601 M128.800 139.676 C 128.800 140.378,128.994 142.043,129.231 143.376 C 129.737 146.220,130.203 148.876,130.780 152.200 C 132.710 163.307,135.166 174.156,138.069 184.400 C 138.287 185.170,138.562 186.297,138.679 186.905 C 138.796 187.513,139.051 188.108,139.246 188.229 C 139.441 188.349,139.600 188.799,139.600 189.229 C 139.600 189.659,139.762 190.323,139.961 190.705 C 140.160 191.087,140.551 192.210,140.831 193.200 C 141.110 194.190,141.488 195.171,141.670 195.380 C 141.851 195.589,142.000 196.086,142.000 196.485 C 142.000 196.884,142.180 197.568,142.400 198.005 C 142.620 198.442,142.980 199.158,143.200 199.595 C 143.420 200.032,143.600 200.580,143.600 200.814 C 143.600 201.048,143.960 201.984,144.400 202.894 C 144.840 203.805,145.200 204.708,145.200 204.900 C 145.200 205.367,147.144 209.543,150.040 215.300 C 151.340 217.885,152.344 220.000,152.271 220.000 C 151.279 220.000,141.857 215.465,139.000 213.613 C 138.120 213.042,136.905 212.326,136.300 212.020 C 135.695 211.715,135.200 211.315,135.200 211.132 C 135.200 210.950,135.021 210.800,134.802 210.800 C 132.156 210.800,117.797 196.602,112.499 188.747 C 109.413 184.173,105.600 177.207,105.600 176.145 C 105.600 175.845,105.420 175.600,105.200 175.600 C 104.980 175.600,104.800 175.321,104.800 174.981 C 104.800 174.640,104.440 173.616,104.000 172.706 C 103.560 171.795,103.200 170.760,103.200 170.405 C 103.200 170.050,103.051 169.589,102.870 169.380 C 102.688 169.171,102.307 168.190,102.023 167.200 C 101.739 166.210,101.359 164.950,101.179 164.400 C 99.534 159.391,97.212 145.314,97.203 140.300 L 97.200 138.400 113.000 138.400 L 128.800 138.400 128.800 139.676 M267.638 145.000 C 267.273 147.683,266.222 153.878,265.635 156.800 C 265.437 157.790,265.061 159.680,264.800 161.000 C 263.500 167.581,261.989 174.061,260.789 178.200 C 260.534 179.080,260.232 180.387,260.119 181.104 C 260.005 181.821,259.751 182.506,259.556 182.627 C 259.360 182.748,259.200 183.289,259.200 183.829 C 259.200 184.369,259.038 185.123,258.841 185.505 C 258.644 185.887,258.082 187.550,257.593 189.200 C 257.105 190.850,256.558 192.560,256.379 193.000 C 256.199 193.440,255.669 194.970,255.200 196.400 C 254.731 197.830,254.195 199.360,254.008 199.800 C 253.822 200.240,253.094 202.040,252.390 203.800 C 250.450 208.653,249.754 210.190,247.174 215.319 C 244.405 220.822,244.396 221.444,247.105 220.040 C 247.487 219.842,249.775 218.717,252.188 217.540 C 254.602 216.363,257.548 214.815,258.737 214.100 C 259.925 213.385,260.957 212.800,261.031 212.800 C 261.529 212.800,269.548 206.772,272.194 204.408 C 281.203 196.359,289.410 184.763,293.643 174.100 C 293.839 173.605,294.162 172.795,294.361 172.300 C 296.631 166.641,299.266 156.940,299.164 154.619 C 299.122 153.677,298.777 154.866,298.009 158.600 C 297.737 159.920,297.375 161.450,297.204 162.000 C 297.033 162.550,296.671 163.810,296.400 164.800 C 295.647 167.551,295.095 169.174,294.054 171.700 C 293.804 172.305,293.440 173.205,293.245 173.700 C 291.047 179.276,285.729 188.519,281.979 193.282 C 277.556 198.900,271.270 204.995,266.400 208.386 C 265.630 208.923,264.910 209.472,264.800 209.607 C 264.384 210.118,260.839 212.400,260.461 212.400 C 260.244 212.400,260.007 212.535,259.933 212.700 C 259.609 213.430,246.113 220.247,245.737 219.871 C 245.614 219.747,246.600 217.513,247.930 214.906 C 249.259 212.299,250.732 209.184,251.204 207.983 C 251.676 206.782,252.337 205.170,252.672 204.400 C 253.007 203.630,253.464 202.550,253.687 202.000 C 253.911 201.450,254.252 200.687,254.447 200.305 C 254.641 199.923,254.800 199.259,254.800 198.829 C 254.800 198.399,254.944 197.958,255.121 197.849 C 255.297 197.740,255.693 196.728,256.000 195.600 C 256.307 194.472,256.703 193.460,256.879 193.351 C 257.056 193.242,257.200 192.724,257.200 192.200 C 257.200 191.676,257.380 191.136,257.600 191.000 C 257.820 190.864,258.000 190.324,258.000 189.800 C 258.000 189.276,258.180 188.736,258.400 188.600 C 258.620 188.464,258.800 187.834,258.800 187.200 C 258.800 186.566,258.959 185.949,259.154 185.829 C 259.349 185.708,259.604 185.113,259.721 184.505 C 259.838 183.897,260.141 182.680,260.394 181.800 C 260.646 180.920,261.007 179.570,261.195 178.800 C 261.383 178.030,261.916 175.960,262.379 174.200 C 263.407 170.294,263.561 169.594,265.328 160.781 C 267.278 151.054,268.090 146.119,267.875 145.298 C 267.775 144.914,267.668 144.780,267.638 145.000 M299.419 150.918 C 299.245 152.193,299.202 153.335,299.322 153.455 C 299.622 153.755,300.117 150.271,299.906 149.347 C 299.812 148.936,299.593 149.643,299.419 150.918 M294.400 198.000 C 293.930 198.660,293.636 199.200,293.746 199.200 C 293.856 199.200,294.330 198.660,294.800 198.000 C 295.270 197.340,295.564 196.800,295.454 196.800 C 295.344 196.800,294.870 197.340,294.400 198.000 M108.400 203.325 C 108.400 203.394,108.985 203.979,109.700 204.625 L 111.000 205.800 109.825 204.500 C 108.730 203.288,108.400 203.016,108.400 203.325 M114.200 209.527 C 116.180 211.569,119.150 214.325,120.800 215.652 C 122.579 217.083,122.905 217.282,121.600 216.141 C 120.390 215.082,117.420 212.326,115.000 210.015 L 110.600 205.815 114.200 209.527 M282.994 210.523 C 280.791 212.545,278.181 214.888,277.194 215.730 C 275.866 216.863,276.032 216.783,277.837 215.421 C 280.158 213.668,287.620 206.831,287.200 206.841 C 287.090 206.844,285.197 208.501,282.994 210.523 M272.800 218.852 C 270.886 220.259,268.432 221.793,263.800 224.476 C 262.532 225.211,254.098 229.357,252.400 230.081 C 251.850 230.315,250.995 230.663,250.500 230.854 C 250.005 231.044,249.195 231.374,248.700 231.586 C 248.205 231.799,246.283 232.463,244.429 233.063 C 242.575 233.662,241.265 234.222,241.519 234.306 C 243.008 234.803,260.689 227.139,265.472 223.924 C 266.392 223.306,267.261 222.800,267.404 222.800 C 267.766 222.800,274.762 217.985,275.030 217.552 C 275.373 216.997,275.140 217.133,272.800 218.852 M124.198 218.396 C 124.492 218.872,129.200 222.119,129.200 221.846 C 129.200 221.745,128.018 220.835,126.573 219.825 C 125.128 218.815,124.059 218.172,124.198 218.396 M129.600 222.354 C 129.600 222.599,129.752 222.800,129.938 222.800 C 130.124 222.800,131.429 223.550,132.838 224.467 C 139.252 228.639,152.234 234.512,159.200 236.392 C 160.190 236.659,161.313 237.040,161.695 237.239 C 162.077 237.438,162.694 237.600,163.066 237.600 C 163.439 237.600,164.296 237.774,164.972 237.986 C 165.647 238.198,166.669 238.465,167.242 238.579 C 167.815 238.693,169.075 239.523,170.042 240.423 C 171.009 241.324,172.430 242.542,173.200 243.130 C 173.969 243.719,174.923 244.492,175.319 244.848 C 178.049 247.305,188.717 251.817,193.400 252.496 C 194.248 252.618,194.611 267.544,193.841 270.600 C 192.196 277.125,182.077 285.557,170.500 290.051 C 169.269 290.528,167.778 291.126,166.700 291.574 C 165.913 291.900,164.102 292.502,159.372 294.009 C 158.696 294.224,157.762 294.400,157.295 294.400 C 156.829 294.400,156.348 294.561,156.226 294.758 C 155.965 295.180,154.058 295.477,148.600 295.945 C 143.364 296.394,139.603 298.168,139.600 300.189 C 139.600 300.403,139.873 300.188,140.207 299.711 C 141.543 297.804,142.965 297.215,147.262 296.790 C 151.379 296.383,154.893 295.799,156.800 295.204 C 157.350 295.033,158.610 294.668,159.600 294.393 C 161.955 293.739,165.963 292.446,167.100 291.974 C 167.595 291.768,168.405 291.442,168.900 291.249 C 170.011 290.816,175.111 288.470,176.200 287.891 C 179.731 286.014,181.734 284.845,183.800 283.453 C 186.681 281.513,192.400 275.910,192.400 275.029 C 192.400 274.683,192.559 274.400,192.753 274.400 C 192.948 274.400,193.239 273.995,193.401 273.500 C 194.652 269.675,194.765 268.626,194.782 260.716 L 194.800 252.432 193.100 251.973 C 189.418 250.980,183.802 249.122,182.438 248.447 C 179.163 246.826,173.815 243.397,172.384 242.001 C 168.838 238.540,168.614 238.408,164.580 237.388 C 152.486 234.327,140.651 229.172,130.700 222.631 C 130.057 222.208,129.600 222.093,129.600 222.354 M235.733 235.538 C 232.472 236.390,231.359 236.877,230.120 238.000 C 223.257 244.214,211.831 250.000,206.423 250.000 C 206.018 250.000,205.576 250.285,205.443 250.633 C 205.010 251.761,205.176 269.005,205.634 270.440 C 207.832 277.331,213.971 282.821,226.000 288.654 C 231.889 291.510,232.858 291.916,236.800 293.183 C 240.929 294.509,241.339 294.618,247.200 295.954 C 248.190 296.180,250.440 296.474,252.200 296.606 C 256.431 296.925,257.719 297.374,259.180 299.038 C 259.851 299.803,260.400 300.260,260.400 300.054 C 260.400 298.152,255.973 296.000,252.059 296.000 C 250.713 296.000,248.754 295.802,247.706 295.559 C 243.185 294.514,239.650 293.602,238.600 293.210 C 238.160 293.045,237.080 292.694,236.200 292.429 C 235.320 292.164,234.195 291.779,233.700 291.574 C 233.205 291.368,232.395 291.047,231.900 290.859 C 222.552 287.318,211.807 280.107,208.565 275.200 C 205.853 271.096,205.600 269.791,205.600 259.921 C 205.600 250.063,205.298 250.825,209.600 249.826 C 212.643 249.119,218.575 246.810,220.400 245.622 C 220.950 245.264,221.895 244.722,222.500 244.418 C 223.105 244.114,223.600 243.715,223.600 243.532 C 223.600 243.350,223.836 243.200,224.125 243.200 C 224.413 243.200,224.998 242.879,225.425 242.486 C 225.851 242.093,226.612 241.486,227.116 241.137 C 227.620 240.788,228.912 239.669,229.987 238.651 C 231.062 237.633,232.270 236.795,232.671 236.788 C 233.583 236.773,240.388 234.945,240.702 234.631 C 241.105 234.229,239.916 234.446,235.733 235.538 M138.901 303.000 C 138.905 303.880,138.987 304.193,139.083 303.695 C 139.179 303.198,139.175 302.478,139.075 302.095 C 138.975 301.713,138.896 302.120,138.901 303.000 M258.781 307.423 C 257.265 309.249,258.906 309.200,199.763 309.200 C 144.549 309.200,144.010 309.192,142.512 308.390 L 141.000 307.579 142.200 308.588 L 143.400 309.596 199.720 309.598 C 260.164 309.600,257.098 309.701,258.963 307.641 C 259.382 307.178,259.628 306.800,259.511 306.800 C 259.394 306.800,259.065 307.080,258.781 307.423 M282.600 313.780 C 277.633 315.002,274.291 318.532,273.114 323.800 C 272.682 325.733,272.132 328.207,271.623 330.500 C 271.416 331.435,271.038 333.100,270.784 334.200 C 270.529 335.300,270.182 336.830,270.012 337.600 C 268.342 345.171,266.314 354.077,265.995 355.246 C 265.576 356.781,265.467 358.266,265.798 357.935 C 265.908 357.826,266.371 356.041,266.828 353.968 C 267.285 351.896,267.808 349.570,267.989 348.800 C 268.171 348.030,268.536 346.410,268.800 345.200 C 269.064 343.990,269.452 342.280,269.662 341.400 C 269.872 340.520,270.204 339.080,270.400 338.200 C 270.596 337.320,270.956 335.790,271.200 334.800 C 271.444 333.810,271.814 332.235,272.022 331.300 C 272.230 330.365,272.580 328.790,272.800 327.800 C 273.020 326.810,273.349 325.235,273.532 324.300 C 274.323 320.250,276.940 316.611,280.241 314.973 C 282.627 313.790,332.071 313.770,334.693 314.952 C 336.679 315.847,338.118 318.416,337.948 320.764 C 337.785 323.026,338.067 323.205,341.724 323.160 C 346.887 323.097,347.715 322.486,342.700 322.440 L 338.400 322.400 338.400 320.461 C 338.400 316.828,336.390 314.525,332.469 313.667 C 329.407 312.996,285.380 313.096,282.600 313.780 M335.714 320.600 C 335.717 321.700,335.795 322.103,335.887 321.495 C 335.979 320.886,335.977 319.986,335.882 319.495 C 335.787 319.003,335.711 319.500,335.714 320.600 M300.313 325.095 C 301.476 325.176,303.276 325.176,304.313 325.093 C 305.351 325.011,304.400 324.945,302.200 324.946 C 300.000 324.947,299.151 325.014,300.313 325.095 M337.313 325.292 C 336.934 325.775,333.600 340.050,333.600 341.190 C 333.600 342.217,334.000 341.331,334.423 339.367 C 334.656 338.285,335.006 336.680,335.202 335.800 C 335.397 334.920,335.665 333.660,335.797 333.000 C 335.930 332.340,336.198 331.170,336.394 330.400 C 336.589 329.630,336.964 328.145,337.227 327.100 L 337.704 325.200 364.506 325.200 C 397.540 325.200,396.202 324.979,395.871 330.387 C 395.770 332.044,395.487 334.255,395.243 335.300 C 395.000 336.345,394.630 337.965,394.422 338.900 C 394.214 339.835,393.872 341.320,393.661 342.200 C 393.147 344.350,392.432 347.448,391.999 349.400 C 391.803 350.280,391.472 351.720,391.262 352.600 C 391.052 353.480,390.664 355.190,390.400 356.400 C 390.136 357.610,389.775 359.230,389.599 360.000 C 389.423 360.770,389.104 362.210,388.890 363.200 C 388.226 366.274,384.828 380.951,384.560 381.900 C 384.421 382.395,384.405 382.800,384.525 382.800 C 384.753 382.800,385.705 379.611,386.197 377.200 C 386.354 376.430,386.654 375.080,386.863 374.200 C 387.072 373.320,387.414 371.835,387.622 370.900 C 387.830 369.965,388.170 368.435,388.378 367.500 C 388.586 366.565,388.956 364.990,389.200 364.000 C 389.444 363.010,389.814 361.435,390.022 360.500 C 390.230 359.565,390.580 357.990,390.800 357.000 C 391.020 356.010,391.370 354.435,391.578 353.500 C 391.786 352.565,392.128 351.080,392.338 350.200 C 392.548 349.320,392.936 347.610,393.200 346.400 C 393.464 345.190,393.829 343.570,394.011 342.800 C 397.436 328.293,397.466 327.220,394.497 325.744 C 392.570 324.786,338.048 324.355,337.313 325.292 M314.000 328.146 C 314.000 328.256,314.540 328.730,315.200 329.200 C 315.860 329.670,316.400 329.964,316.400 329.854 C 316.400 329.744,315.860 329.270,315.200 328.800 C 314.540 328.330,314.000 328.036,314.000 328.146 M333.829 329.429 C 333.681 330.015,333.638 330.572,333.732 330.666 C 333.827 330.760,334.024 330.358,334.171 329.771 C 334.319 329.185,334.362 328.628,334.268 328.534 C 334.173 328.440,333.976 328.842,333.829 329.429 M347.470 335.500 C 347.349 336.105,347.057 337.410,346.822 338.400 C 346.586 339.390,346.291 340.830,346.165 341.600 C 346.039 342.370,345.785 343.360,345.601 343.800 C 345.416 344.240,345.142 345.230,344.991 346.000 C 344.841 346.770,344.546 348.120,344.337 349.000 C 344.128 349.880,343.796 351.320,343.600 352.200 C 343.404 353.080,343.044 354.610,342.800 355.600 C 342.556 356.590,342.197 358.120,342.001 359.000 C 341.385 361.777,340.351 366.212,339.622 369.200 C 338.711 372.936,338.284 375.106,338.244 376.200 L 338.200 377.400 353.775 377.505 C 370.498 377.617,369.916 377.693,370.428 375.332 C 370.611 374.489,370.967 372.900,371.220 371.800 C 371.472 370.700,371.817 369.170,371.986 368.400 C 372.155 367.630,372.362 366.730,372.447 366.400 C 372.578 365.885,371.511 365.785,364.900 365.691 C 356.360 365.571,356.778 365.739,357.695 362.803 L 358.189 361.218 364.995 361.109 L 371.800 361.000 372.081 359.400 C 372.235 358.520,372.550 356.945,372.781 355.900 C 374.225 349.354,374.819 350.000,367.357 350.000 C 360.699 350.000,360.735 350.012,361.148 347.990 L 361.432 346.600 368.557 346.400 L 375.682 346.200 376.187 344.600 C 376.464 343.720,376.915 341.920,377.189 340.600 C 377.462 339.280,377.847 337.678,378.043 337.040 C 378.479 335.625,378.505 334.400,378.100 334.400 C 377.935 334.400,377.767 334.805,377.727 335.300 C 377.686 335.795,377.461 337.055,377.227 338.100 C 376.605 340.867,375.997 343.643,375.738 344.891 L 375.512 345.982 368.272 346.091 L 361.032 346.200 360.700 347.600 C 360.036 350.400,359.569 350.189,366.700 350.310 L 373.200 350.420 373.200 351.355 C 373.200 351.869,372.836 353.800,372.392 355.645 C 371.947 357.490,371.494 359.405,371.384 359.900 C 371.187 360.789,371.104 360.800,364.572 360.800 L 357.959 360.800 357.357 362.241 C 357.026 363.034,356.810 364.159,356.877 364.741 L 357.000 365.800 364.524 365.909 C 371.425 366.009,372.033 366.075,371.869 366.709 C 371.770 367.089,371.185 369.605,370.569 372.300 L 369.448 377.200 353.879 377.200 L 338.309 377.200 338.530 376.100 C 338.651 375.495,338.952 374.190,339.197 373.200 C 339.443 372.210,339.804 370.680,340.000 369.800 C 340.196 368.920,340.538 367.480,340.760 366.600 C 340.982 365.720,341.271 364.460,341.401 363.800 C 341.531 363.140,341.798 361.970,341.994 361.200 C 342.189 360.430,342.552 358.900,342.800 357.800 C 343.048 356.700,343.408 355.170,343.600 354.400 C 343.792 353.630,344.135 352.190,344.361 351.200 C 344.587 350.210,345.301 347.150,345.947 344.400 C 346.593 341.650,347.346 338.410,347.619 337.200 C 347.892 335.990,348.315 334.868,348.558 334.706 C 348.838 334.520,348.759 334.410,348.345 334.406 C 347.949 334.402,347.604 334.834,347.470 335.500 M332.978 343.378 C 332.827 344.181,332.804 344.937,332.926 345.060 C 333.048 345.182,333.272 344.625,333.422 343.822 C 333.573 343.019,333.596 342.263,333.474 342.140 C 333.352 342.018,333.128 342.575,332.978 343.378 M308.400 344.525 C 308.400 344.594,308.985 345.179,309.700 345.825 L 311.000 347.000 309.825 345.700 C 308.730 344.488,308.400 344.216,308.400 344.525 M332.178 346.978 C 332.027 347.781,331.994 348.527,332.104 348.637 C 332.214 348.747,332.427 348.181,332.578 347.378 C 332.728 346.575,332.762 345.828,332.652 345.718 C 332.542 345.608,332.328 346.175,332.178 346.978 M331.473 349.753 C 331.323 350.145,331.216 350.946,331.236 351.533 C 331.270 352.528,331.298 352.509,331.657 351.263 C 332.073 349.819,331.923 348.582,331.473 349.753 M330.673 353.353 C 330.523 353.745,330.416 354.546,330.436 355.133 C 330.470 356.128,330.498 356.109,330.857 354.863 C 331.273 353.419,331.123 352.182,330.673 353.353 M329.797 357.453 C 329.351 359.566,328.753 362.187,328.394 363.600 C 328.198 364.370,327.930 365.540,327.797 366.200 C 326.688 371.737,326.205 373.367,324.989 375.694 C 323.675 378.207,321.678 380.120,319.120 381.317 C 317.136 382.245,316.404 383.128,318.300 382.306 C 323.138 380.207,325.884 376.596,327.354 370.400 C 328.999 363.464,330.406 356.672,330.232 356.499 C 330.126 356.393,329.930 356.822,329.797 357.453 M265.039 359.600 C 264.280 363.373,263.879 365.079,263.555 365.919 C 263.360 366.424,263.200 367.264,263.200 367.786 C 263.200 368.307,262.837 369.604,262.393 370.667 C 261.624 372.512,261.622 372.556,262.357 371.619 C 262.780 371.079,263.300 369.819,263.513 368.819 C 263.725 367.818,264.294 365.236,264.776 363.079 C 265.258 360.922,265.578 358.942,265.486 358.679 C 265.395 358.416,265.193 358.830,265.039 359.600 M316.893 384.400 C 316.893 385.170,316.975 385.485,317.076 385.100 C 317.176 384.715,317.176 384.085,317.076 383.700 C 316.975 383.315,316.893 383.630,316.893 384.400 M383.058 384.784 C 382.476 385.664,381.234 386.793,380.300 387.292 L 378.600 388.200 350.600 388.322 C 320.059 388.454,319.563 388.433,318.151 386.910 C 317.628 386.345,317.200 386.058,317.200 386.272 C 317.200 387.057,319.051 388.302,320.877 388.745 C 323.930 389.485,374.891 389.375,377.783 388.621 C 381.011 387.781,385.276 384.343,384.302 383.368 C 384.200 383.267,383.641 383.904,383.058 384.784 " stroke="none" fill="#66bdd5" fill-rule="evenodd"></path></g></svg>